<?xml version="1.0" encoding="UTF-8"?>
<svg id="Layer_1" xmlns="http://www.w3.org/2000/svg" version="1.1" viewBox="0 0 489.2 788.9">
  <!-- Generator: Adobe Illustrator 29.2.1, SVG Export Plug-In . SVG Version: 2.1.0 Build 116)  -->
  <defs>
    <style>
      .st0, .st1 {
        fill: #fff;
      }

      .st1 {
        stroke: #231f20;
        stroke-miterlimit: 10;
        stroke-width: 9px;
      }

      .st2 {
        fill: #161616;
      }
    </style>
  </defs>
  <g id="Final">
    <path class="st1" d="M211.5,363c-33.5-3.1-50-100.5-50-100.5-11.1,43.3-24.2,75.2-47.3,105.7-20.6,27.3-87.2,47.7-87.2,47.7,0,0,58.1,20,85.4,50.2,22.2,24.6,37.7,102.9,37.7,102.9,10.1-31.3,18.2-60.1,35.8-92,12.6-22.8,42.9-22.1,42.9-22.1l116.7,5.3,61.8,24.4,76.7-102.2s-246.6-17.3-272.5-19.7v.3Z"/>
  </g>
  <g id="Layer_16">
    <g id="Layer_14">
      <g>
        <path class="st2" d="M119.7,443.1s2.9,7,4.7,8.7c8.7,8.3,22.3,4.7,22.3,4.7,5.2-1.4,13.4-12.8,11.4-19.5-1.6-5.6-6.9-11.5-16.6-14.7-12.3-4.1-16.1-6.6-26.3-12.1-10.7-5.8-22.8-16.6-24.3-25.7-1.8-10.8,4-23.4,12.6-31.1,5.7-5.1,13.2-8.3,20.9-10.8,28.1-8.9,63.8-5.9,91.1,4.8-15.3,8.8-25.9,13.9-45.5,25.1.6-5.1.4-7.5-.8-12.9-1-4.3-3.9-8.2-8.2-10.6-6.1-3.4-13.7-3.9-19.4-.2-5.7,3.7-8.5,9.2-10.3,15.2-1.5,4.9-.8,9.3,1.1,13.6,3,6.4,11.4,10.1,19.4,12.6s15.7,3.1,23.6,5.8c11.8,4,20.6,14.7,25.1,25s1.4,21.9-5.9,30.8c-3.9,4.7-10.1,9.9-18.2,13.2-30.1,12.6-76.1,13.1-97.8-4.7"/>
        <path class="st2" d="M272.8,388.6c-4.8,14.7-11.7,33.2-18.5,50.5,11.3.7,25.3,1.5,36.7,2.2,1.3-1.7,1.3-1.9,3.2-4.9-6.3-.7-11-1.2-17-1.9,1.2-4.5,4.8-15.2,4.8-15.2l1-2.6s2.2.2,4.9.5c5.4.6,6.1.8,6.1.8h.6s.3-.3,3.8-5.3c-4.4-.5-7.8-.9-13.6-1.5,1.7-5.2,3.6-10.5,5.3-15.8,5.2.4,9.9.7,16.1,1.1l4-4.8-21.4-1.7"/>
        <path class="st2" d="M404.8,405.2c-11.1,14.5-19.4,24.5-34.4,44.2,10.9,3.6,19.4,6.6,28.8,10.3,1.4-1.6,1.6-2.3,4.2-4.9-5.2-2-8.5-3.3-13.4-5.6,7.3-9.7,10.2-13.2,10.2-13.2l1.8-2.1s1.8.8,3.8,1.7l3.1,1.4,4.7,2.2,4-4.3c-3.4-1.6-7.4-3.5-12-5.6,3.5-4.3,7.2-8.6,10.7-12.9,4.4,1.7,7.9,3,13.7,5.5l4.2-4.5-16.3-6.8"/>
        <path class="st2" d="M244.1,386.6s-.2,3.9,0,8.3c.4,9.2.7,15.7,1.1,25.2,0,.2.1.4.4.5.4.1.6-.2.8-.5,5.1-10.8,10.2-21.2,15.6-32.1,0-.2.3-.3.6-.3l7.2.4c.4,0,.7.4.5.7-1,2.3-4.2,10-4.2,10,0,0-7.5,17.2-7.9,18l-7.5,16.8c-1,2.2-1.8,4-2.2,4.7-.1.2-.3.3-.6.3-1.2,0-4.6-.3-6.2-.4-5.9-.3-10.8-.6-17-1.3-.3,0-.5-.3-.6-.5-.2-10.6.1-19.4,0-29.4,0-.6-.9-.7-1.2-.2-4.7,9.4-9.2,18.6-13.8,28.4-.1.2-.4.4-.6.3-.6,0-.8,0-1.5-.1-.3,0-.5-.5-.5-.5,0,0,0-14.8-4.6-21.3-4.7-6.6-12.2-15.5-18-17.7,0,0,.2-2.6.2-2.8.2-2.7.4-4.1.5-6.5,0-.2,0-.4.2-.5l11.3-4.6,9.4-3.4c.1,3.2.6,10.1.8,12.7,1,12.1,1.7,17.3,3.1,28.2v.6s.2-.6.2-.9,8.6-19.4,12.2-28.6c.6-1.4,1.1-2.4,1.3-2.9.5-1.1.8-2,.8-2,2.1.1,10,.6,11.1.7"/>
        <path class="st2" d="M257.5,438.3c11.4,1,22.7,1.8,34.1,2.5,0,.3-.6.4-.9.2"/>
        <path class="st2" d="M316.4,443.1l-21.2-1.6c-.5,0-.7-.6-.4-.9,1.4-1.6,2.6-3.3,3.8-5.1.6-.8,2.2-6.5,5.1-17.5,2.8-10.3,4.8-19.3,5.1-20.5v-.2c.9-1.1,2.4-2.9,4.7-5.4h0c16.4,1.1,26.5,1.7,38.5,2.5,0,0,.3,0,.4.2,2.3,2.4,3.6,5.7,3.2,8.8-.4,3.3-1.6,5.8-4.2,8.8-1,1.2-3.5,3.1-9.9,4.6-.3,0-.4.4-.4.6h0c2,8.7,4.8,17.8,7.2,26.7.2.6.7.5-2.1.4-6.7-.3-8-.2-15.4-.5,0,0-.5-.2-.6-.4-2.4-7.3-4.3-15.3-6.4-22.7-.2-.6-1-.6-1.2,0-2.1,7.7-3.3,13.1-5.8,21.7,0,.3-.3.4-.6.4h0c0,.1.2.1.2.1Z"/>
        <path class="st2" d="M364.9,447.4s1.3-1.7,2.9-3.5c13-15.5,19.9-24.4,32.7-40.9-5.6-2.1-6.2-2.4-10.4-3.7,0,0-4,4.9-4.9,6-7.3,8.7-9.3,10.6-18.6,21.2,1.4-10.8,3.6-19.4,5.3-30.2-6.1-.6-9.4-.9-13.1-1.2,2.5,4.1,2.8,7.1,1.5,10.9-1.4,4.1-4.5,7.5-7.7,10.1-1.9,1.4-3.7,2.3-7,3,1.1,3.4,3.3,8.5,3.7,10,.3,1,3.7,11.7,5.5,16.1"/>
        <path class="st0" d="M328.1,398.6c-1.2,4.2-2.3,8.4-3.5,12.6,3.8.4,7.9-.2,10.9-1.5s4.7-3.2,5.2-5.1c.5-1.8-.2-3.8-2.6-5.1-2.4-1.4-6.8-1.9-9.9-1h0c0,.1-.1.1-.1.1Z"/>
      </g>
    </g>
  </g>
</svg>