<?xml version="1.0" encoding="UTF-8"?>
<svg id="Layer_1" xmlns="http://www.w3.org/2000/svg" version="1.1" viewBox="0 0 1080 1920">
  <!-- Generator: Adobe Illustrator 29.2.1, SVG Export Plug-In . SVG Version: 2.1.0 Build 116)  -->
  <defs>
    <style>
      .st0 {
        fill: #9bcb3c;
      }
    </style>
  </defs>
  <g id="Layer_4">
    <g id="verde">
      <g id="main3">
        <g id="Verde3">
          <g>
            <g>
              <path class="st0" d="M576.3,970.1c-.1.4-.2.8-.4,1.2h0s1-3.8.3-1.2h.1Z"/>
              <path class="st0" d="M576.8,931.7c-.1-.2-.2-.5-.3-.7,0,.1-.1.2-.2,0-.2-.4-.3-.7-.4-1.1v-.2c-.6-1-1.2-1.9-1.9-2.8-.1,0-.2-.2-.3-.3-.2-.2-.5-.4-.7-.7-.2-.2-.3-.5-.5-.6-1-.9-2.2-1.8-3.4-2.5-.5-.3-1.1-.5-1.6-.8-.4-.2-.7-.4-1.1-.5-.3-.1-.5-.3-.9-.5s-.7-.3-1-.5h-.2c-.4-.1-.7-.3-1.1-.5h0c-.7-.2-1.4-.4-2.1-.6-.4-.1-.8-.2-1.3-.3h-3.2c-1.3.3-2.6.6-3.9,1-.3,0-.6.3-.9.3s-.7.2-1.1.3c-.7.2-1.6.5-2.3.6-.4,0-.7,0-1.1.2-.3,0-.6.2-1,.2h-.3c-.2,0-.4.1-.7.2-.9.2-2,.4-3,.4s-1.1,0-1.7-.1c-.5,0-1,0-1.5-.1h-.5c-.9,0-1.8-.2-2.6-.3h-.6c-2.5-.4-4.9-1.1-7.1-1.5-4.1-.8-8.2,0-10.9,1.3-3.6,1.7-6.3,5.1-7.8,8.8s-2,7.7-2.3,11.7c-.7,9.3-.2,18.7,1.5,27.9.7,3.7,1.6,7.4,3.1,10.8,2.4,5.5,6.4,10.2,10.6,14.5,3.2,3.2,6.6,6.3,10.7,8.2,6.6,3,14.7,2.5,20.9-1.3,3.4-2.1,6.2-5.2,8.9-8.1,2.3-2.6,4.7-5.2,6.5-8.1,1.4-2.2,2.4-4.6,3.4-7,1.4-3.2,2.7-6.5,3.4-9.9.5-2.6.6-5.4.8-8.1.8-9.8,3.8-20.2-.2-29.3h.1-.2,0Z"/>
              <path class="st0" d="M561.9,1001"/>
              <path class="st0" d="M561.9,1000.9h.1-.1Z"/>
              <path class="st0" d="M561.8,1001"/>
              <path class="st0" d="M562,1000.9"/>
              <path class="st0" d="M561.9,1001"/>
              <path class="st0" d="M561.9,1001"/>
              <path class="st0" d="M607.4,1045.2c-.3-.4-2.9-1.5-3.4-1.6-7.2-2.3-14.3-4.5-21.5-6.8-3.3-1.1-6.8-2.1-9.5-4.2-3.5-2.6-5.5-6.7-7.1-10.7-4.1-10.6-4.1-20.9-4.1-20.9-7.1,4.2-12.4,8-18.9,8s-13.6-2.3-18.5-6.6c-.3,7.2-1.6,14.3-4,21.1-1.2,3.3-2.6,6.7-5.2,9.2-2.3,2.2-5.3,3.6-8.2,4.9-8.2,3.7-16.4,7.5-24.6,11.2,6,6.4,12.1,12.8,18.1,19.3,1.5,1.6,3,3.2,4.9,4.3,2.7,1.6,5.9,2.2,9.1,2.4,10.6.8,17.8.5,31.9,0l21.9-.8c3-.5,6.2,0,9.1-1,1.8-.7,3.3-2,4.8-3.3,6.1-5.5,5.3-5.4,11.4-10.9,2.3-2,4.1-4,9.7-9.4.3-.4,4.4-3.6,4.2-4h0v-.2h0Z"/>
              <path class="st0" d="M562.2,1000.8"/>
              <path class="st0" d="M562.1,1000.9"/>
              <path class="st0" d="M562.2,1000.8"/>
              <path class="st0" d="M562.2,1000.8"/>
              <path class="st0" d="M614.5,910.7c-6.8,1.8-13.8,3.7-20.8,4-7.1.4-14.5-.9-20.3-4.8-4.4-3-7.6-7.2-10.4-11.5-10.8-16.3-18.2-34.6-20.8-53.7-5.6,17.5-12.6,34.7-20.8,51.3-2.3,4.6-4.7,9.3-8.2,13.2s-8.1,7.1-13.5,8.1c-5.2.9-10.6-.3-15.7-1.6-6.7-1.6-13.5-3.3-19.7-6.3,16.1,14.1,33.3,28.8,40.4,48.4,0-.3-.1-.6-.1-1-.3,0-.4-1.5-.4-1.7-.2-.8-.2-1.8-.2-2.6v-.7c-.1-.6-.1-1.4-.1-2v-1.5c0-.4,0-.8-.1-1.2v-3.5c0-1.2,0-2.2.2-3.2h0v-.8c0-.6,0-1.3.1-1.9,0-.2,0-.4.1-.6q0,0,0,0c0-.3,0-.6.1-1,0-.5.1-1.1.2-1.6.1-.4.1-.3.1-.2,0-.5,0-1,.2-1.4.1-.3.2-.5.4-.7,0-.3.1-.6.3-.9.1-.3.2-.6.3-.9.3-.6.4-1.2.6-1.8.4-1.1.9-2.1,1.3-3.2.3-1,.8-2.1,1.5-2.9.6-.8,1-1.6,1.7-2.3,1.3-1.4,2.6-2.8,4.2-3.7.5-.3,1-.5,1.5-.8.4-.2,1.5-1,1.9-1.2.8-.4,1.6-.4,2.4-.4h1.5c.3.1.6,0,.9,0s.3.1.5.2h0c6.1-.3,12.6,1.9,18.9,1.8,5.5-.1,10.9-2.1,16.4-2.2,7.6,0,15.2,3.7,19.3,9.8,3.7,5.5,4.5,12.4,4,18.9-.4,4.7-1.3,9.3-2.1,13.9h0c0-.2.1-.4.2-.5.1,0,.2-.2.2-.3,0-.2.2-.3.3-.5,0-.2.2-.3.3-.5h.1c0-.1,0-.3.1-.4,0-.2.1-.4.2-.6v-.3c0-.3.1-.9.1-.4,0-.3.1-.7.3-.9,0-.2.1-.3.2-.5.2-.5.3-.9.5-1.3h0c1.6-4.3,3.6-8.4,6.7-11.9,1.3-1.6,2.8-3,4.3-4.4,9.8-9.2,20.4-17.7,30.8-26.9-3,1.9-6.5,2.8-9.9,3.7h.1-.3Z"/>
              <path class="st0" d="M591.1,941.4c-2,0-3.2,2.3-3,4.2s1.3,3.6,2.1,5.5c2.9,7.3-1.5,15.9-8.1,20.3-2.2,1.4-5,3.5-4.1,5.9,2.9-.2,5.5-1.9,8.1-3.4,16.7-10.1,35.8-16.3,55.3-17.9-15.2-.6-35-4.7-50.2-14.5h0Z"/>
              <path class="st0" d="M492.3,941.4c2.1,0,3.4,2.4,3.2,4.5-.2,2.1-1.4,3.9-2.2,5.8-3.1,7.8,1.6,16.9,8.6,21.5,2.3,1.5,5.3,3.7,4.3,6.3-3.1-.2-5.9-2-8.5-3.6-17.6-10.7-37.8-17.3-58.4-19.1,18.5.2,36.9-5.1,53-15.4h0Z"/>
              <path class="st0" d="M566.9,994.7c2.9-3.7,5.8-7.4,9-10.9,2,6.6,4,13.2,7.8,19-5.1-3.1-10.2-6.1-16.7-8.1h0Z"/>
              <path class="st0" d="M566.9,994.7c2.9-3.7,5.8-7.4,9-10.9,2,6.6,4,13.2,7.8,19-5.1-3.1-10.2-6.1-16.7-8.1h0Z"/>
              <path class="st0" d="M518.1,998.7c-3.2-3.8-6.6-7.5-10.1-11.2-2.2,6.7-4.5,13.5-8.7,19.4,5.7-3.1,11.5-6.3,18.8-8.3h0Z"/>
              <path class="st0" d="M585.2,950.7c1.2-.3,2.4.6,2.9,1.7.4,1.1.2,2.4-.1,3.6-1.4,5.5-4.8,10.4-9.4,13.8,0-.3-.2-.7-.5-.6"/>
              <path class="st0" d="M497.6,952.9c-1.6.6-2.5,2.4-2.4,4.1,0,1.7.9,3.3,1.8,4.7,2.4,3.8,5.5,7.2,9.3,9.6h.2"/>
            </g>
            <path class="st0" d="M518.6,884.8c-3.7,9.3-8.3,18.6-16,24.6-.3.2-.7.5-1,.3s-.3-.7-.2-1.2c.5-3.5-.8-6.9-2.2-10.2-5.2-12.2-12.7-27.4-20.3-38.3,7.8,8.1,18.1,18.2,28.2,22.5,2,.8,4.1,1.6,6.2,1.9,1.8.3,3.6.2,5.2.4h0Z"/>
            <path class="st0" d="M564,884.9c3.8,8.5,8.4,17,16.1,22.5.3.2.7.4,1,.3.3-.2.3-.7.2-1.1-.5-3.2.8-6.4,2.2-9.3,5.2-11.2,11.8-21.7,19.6-31.7-7.9,7.4-17.3,13.3-27.6,17.2-2,.8-4.1,1.5-6.3,1.7-1.8.2-3.7.1-5.3.4h0Z"/>
          </g>
        </g>
      </g>
    </g>
  </g>
</svg>