<?xml version="1.0" encoding="UTF-8"?>
<svg id="Layer_1" xmlns="http://www.w3.org/2000/svg" version="1.1" viewBox="0 0 1080 1920">
  <!-- Generator: Adobe Illustrator 29.2.1, SVG Export Plug-In . SVG Version: 2.1.0 Build 116)  -->
  <defs>
    <style>
      .st0, .st1 {
        fill: #f47b20;
      }

      .st1 {
        stroke: #fff;
        stroke-miterlimit: 10;
        stroke-width: 2px;
      }
    </style>
  </defs>
  <g id="Layer_5">
    <g id="naranja">
      <g id="main2">
        <g>
          <g>
            <path class="st0" d="M590.8,991.6c-.4-.3-1-.4-1.5-.6-2.8-.7-4.8-3.6-4.4-6.3.3-2.2,1.8-4,2.7-6.1,1.2-2.9,1.1-6.3-.4-9.1-.7-1.2-1.6-2.4-2.2-3.7-2.3-5.3-.3-11.7,2.4-17.4.8-1.6,1.4-3.4,1.7-5.1v-4.1c0-.6.1-1.2,0-1.8-.2-.9-.4-2-.3-3v-.7c0-.2-.1-.6-.2-.8-.2-.7,0-1.4-.1-2.1-.2-.8-.6-1.6-.6-2.4s.7-2,0-2.5h0v-.2h0c0-.3,0-.4.1-.6.6-2.1,0-2.7-.1-6.6-.2-7.6-5.2-17.6-7.9-22.1-1.3-2.2-7.2-10-11.1-13.2-2.4-2-10-4.3-20.6-5.6-8-.9-16.2-.5-23.8,2s-14.5,6.9-19.1,13.1c-4.8,6.4-6.7,14.2-8.4,21.8-.4,2-.6,4.7-.8,7-.1,1.2-.2,2.4-.4,3.6,0,.4-.2.7-.2,1-.3,1.5.1,3.1,0,4.6,0,.2-.1.5-.1.7,0,1.2.3,2.5.4,3.7,0,1.2.1,2.4.4,3.6,0,.3.1.5.2.7.6,2.1,1.6,4.2,1.7,6.4.2,3.3,1,3.9,1,3.9,0,0,2.5,10.4,1.8,13.2-.5,2.2-.1,4.2-1.3,6-2.1,3.1-2.2,7.2-.5,10.5.9,1.7,2.3,3.2,2.5,5.1s-1,3.7-2.5,4.9c-1.6,1.2-3.8,1.2-5.3,2.5-.5.4.2,1.2.7,1.5s1.3.2,1.9.2c3.7-.3,8-1,9.7-4.2,1.4-2.6.2-5.8-.3-8.6-.5-2.8-.4-6,1.6-8.1.5-.6,1.2-1,1.6-1.7h0c-.2-.8,0-1.8,0-2.5s.1-1,.2-1.5c0-.5.3-.9.6-1.4,0-.5.2-.9.4-1.3,0-.3.1-.6.2-.8,0,0,0-.2.1-.3h0v-.4c.1-.3.4-.6.5-.9.2-.4.4-.7.6-1,0,0,.1-.2.2-.3.7-1.9,1.3-3.2,2.4-4.9,0-.4.4-.7.5-1.2.1-.3.2-.6.3-.9,0-.2.1-.3.2-.5v-.8c0-.2.1-.4.1-.6,0-.6,0-1.2.2-1.8s.1-.3.1-.7v-.7c0-.3.2-.5.2-.7v-.8h0c0-2.3,0-5.5.2-7.7.3-3.3,1.1-6.5,2.9-9.4,3.3-5.1,8.7-8.4,13-12.6,2.4-2.4,4.3-5.2,5.9-8.1.9-1.5,1.6-3,2.4-4.5.7-1.4,1.2-3,1.7-4.5s1.1-3.1,1-4.7c0-1.8-.3-3.6-.6-5.3-.6-3.6-.7-7.2-1.2-10.8-.1-.7.7-1.4,1.4-1.4s1.3.7,1.4,1.4.2,1.4.3,2.1c.6,3,1,6,1.4,9,0,.2,0,.4.1.7.3,2.1.7,4.3.3,6.4v.3c-.1,1.9.3,3.8.6,5.7.6,3.2,1.6,6.4,3.3,9.2,1.6,2.7,3.8,5,6.2,7s2.6,2,3.7,3.1c1.2,1.1,2.5,2.2,3.8,3.3,2.6,2.2,5.3,4.3,7.5,6.8,2.3,2.6,4.4,5.4,5.7,8.6,1.3,3.2,1.7,6.5,1.2,9.9-.5,3.3-2.2,6.4-2,9.7,0,.8.5,1.5.7,2.8.7,4,4.9,6.9,5.1,11,.1,2.3-1.2,4.4-1.9,6.6-.9,2.9-.3,6.3,1.6,8.7,2,2.4,5.4,3.7,8.5,2.9.2,0,.3,0,.5-.2.4-.3.2-1-.2-1.3h.4,0Z"/>
            <path class="st0" d="M617.1,1035.1c-.3-.5-3.3-1.6-3.9-1.8-8.2-2.5-16.4-5-24.6-7.4-3.8-1.1-7.7-2.3-10.9-4.7-4-2.9-6.3-7.3-8.1-11.8-4.6-11.6-4.7-22.9-4.7-22.9-8.1,4.6-14.2,8.7-21.7,8.7s-15.5-2.5-21.2-7.3c-.3,7.9-1.9,15.7-4.6,23.1-1.3,3.6-3,7.3-6,10.1-2.6,2.4-6.1,3.9-9.4,5.4-9.4,4.1-18.8,8.2-28.2,12.3l20.8,21.1c1.7,1.7,3.5,3.5,5.6,4.8,3.1,1.8,6.8,2.4,10.4,2.6,12.1.9,20.4.6,36.5,0l25-.9c3.4-.6,7.1,0,10.4-1.1,2.1-.7,3.8-2.2,5.5-3.6,7-6.1,6.1-6,13.1-12,2.6-2.2,4.7-4.4,11.1-10.3.4-.4,5.1-4,4.8-4.4h.1Z"/>
            <path class="st0" d="M574.6,966.9c-1-1.8-1.7-3.7-1.8-5.8-.1-3.8,1.9-7.3,2.2-11,.5-6.5-3.6-12.4-8.2-16.8-2.4-2.3-5.2-4.4-7.8-6.6-1.2-1.1-2.4-2.2-3.7-3.2-1.3-1-2.5-2.1-3.7-3.3-2.4-2.4-4.4-5.1-5.7-8.1-1-2.3-1.7-4.7-2.1-7.1,0,0,0,.2-.1.3-.3.8-.8,1.6-1.2,2.4-.8,1.5-1.6,3-2.5,4.4-1.7,2.9-3.7,5.7-6.2,8.1-4.2,4.1-9.7,7.3-12.6,12.4-3.3,5.8-1.6,12.7-2.5,19-.2,1.6-.7,3.1-1.3,4.6-.6,1.6-1.7,3.1-2.6,4.6-1.7,2.6-3.4,5.6-2.8,8.8,0,.5,0,.9-.3,1.2,3.5,5.4,8.8,11.8,13.5,15.7,5.2,4.2,16.2,7.7,19.6,5.9,9.2-.4,17.3-8,21.8-13.4,3.1-3.6,5.6-7.6,8-11.9,0,0,0-.1-.1-.2h.1Z"/>
          </g>
          <path class="st1" d="M569.9,883.9c0-2,1.8-3.6,3.8-4.1s4.2,0,6.1.5c3.2,1,6.4,2.6,7.7,5.5,1.3,2.8.4,6.3-2.1,8.2s-6.3,2-8.9.2c-1.6-1.1-2.6-2.8-3.5-4.4-1.2-2.1-3.2-4.2-3.1-5.9h0Z"/>
          <path class="st1" d="M520.5,883.9c0-2-1.9-3.6-3.9-4.1s-4.2,0-6.2.5c-3.2,1-6.5,2.6-7.8,5.5-1.3,2.8-.4,6.3,2.1,8.2s6.4,2,9,.2c1.6-1.1,2.7-2.8,3.6-4.4,1.2-2.1,3.2-4.2,3.2-5.9h0Z"/>
          <path class="st0" d="M628.3,866.4c3.8,7.6,4.3,16.6,1.3,24.6-.9,2.4-2.1,4.7-2.8,7.2s-.9,5.2.3,7.5c1.9,3.6,6.9,5.2,11,3.9,4-1.3,7-4.8,8.2-8.7s.9-8,0-12c-1.2-5.2-3.3-10.2-6-14.8-1.4-2.4-3.1-4.9-5.5-6.5s-5.7-2.3-6.6-1.1h.1Z"/>
          <path class="st0" d="M461,862.4c-3.9,7.6-4.5,16.6-1.4,24.6,1,2.4,2.2,4.7,2.9,7.2.7,2.5.9,5.2-.3,7.5-1.9,3.6-7.1,5.2-11.3,3.9-4.2-1.3-7.2-4.8-8.5-8.7s-1-8,0-12c1.2-5.2,3.4-10.2,6.2-14.8,1.5-2.4,3.2-4.9,5.7-6.5s5.9-2.3,6.8-1.1h-.1Z"/>
          <path class="st0" d="M644.6,919.2c-.6,7.6-3.9,15.1-9.3,20.7-2.5,2.6-5.5,5-7.6,7.9-2.1,3-3.2,6.9-1.5,10.1,1.8,3.6,6.7,5,10.8,3.9,4-1.1,7-4.4,8.7-8s2.2-7.7,2.5-11.6c.6-6.7.8-13.5-.4-20.1-.2-1-.4-2-1.1-2.8s-2.1-1.1-2.1-.2h0Z"/>
          <path class="st0" d="M441.9,914c.6,7.8,4.3,15.3,10.3,21.1,2.8,2.7,6.1,5.1,8.4,8.1s3.5,7.1,1.7,10.3c-2,3.6-7.5,5.1-11.9,4-4.4-1.2-7.8-4.5-9.6-8.2s-2.4-7.8-2.8-11.8c-.6-6.8-.9-13.7.4-20.5.2-1,.4-2.1,1.2-2.8.8-.7,2.3-1.1,2.4-.2h-.1Z"/>
          <path class="st0" d="M625.7,969.3c-5.3,7.5-8.4,16.4-8.6,25.5,0,3,.2,6.1,1.9,8.6,2.6,3.7,8.3,5.1,12.4,2.8s5.7-7.7,3.6-11.7c-1.1-2.2-3.1-3.8-4.7-5.7-4-4.8-5.2-11.7-2.9-17.5.2-.6.5-1.2.5-1.8s-.5-1.3-1.1-1.3-1.2.8-1.1,1.1h0Z"/>
          <path class="st0" d="M457.9,963.9c5.3,7.9,8.2,17.5,8.5,27.1,0,3.2-.2,6.5-1.9,9.1-2.5,4-8.2,5.4-12.2,3s-5.7-8.2-3.6-12.4c1.1-2.3,3.1-4,4.6-6,3.9-5.1,5.1-12.5,2.8-18.6-.2-.6-.5-1.2-.4-1.9,0-.7.5-1.4,1.1-1.4s1.2.8,1.1,1.1h0Z"/>
          <path class="st0" d="M638.7,1004.9c3.5,6.7,5.3,14.3,5.1,21.8,0,2-.2,4,.6,5.9,1.8,4,7.9,4.9,11.6,2.3,3.6-2.6,4.7-7.5,3.6-11.7s-4.1-7.7-7.3-10.7c-3.1-2.9-6.6-5.4-10.3-7.5-.7-.4-1.4-.7-2.2-.6-.7.2-1.3,1.2-1,.5h-.1Z"/>
          <path class="st0" d="M443.3,1001.6c-3.6,6.7-5.4,14.3-5.3,21.8,0,2,.2,4-.6,5.9-1.8,4-8.2,4.9-12,2.3s-4.9-7.5-3.7-11.7c1.2-4.2,4.2-7.7,7.6-10.7,3.2-2.9,6.8-5.4,10.7-7.5.7-.4,1.5-.7,2.3-.6s1.3,1.2,1.1.5h-.1Z"/>
          <path class="st0" d="M654.5,1039.2c-.6,2.2-2,4.3-4,5.7-1,.8-2.2,1.4-3.2,2.1-1,.8-1.9,1.8-2.2,3-.4,2,1.3,4.1,3.4,4.6,2.1.4,4.4-.6,5.7-2.2s2-3.7,2-5.8c.1-2.5-.5-5-1.8-7.5h.1Z"/>
          <path class="st0" d="M428.9,1036.3c.6,2.2,1.8,4.3,3.6,5.7.9.8,2,1.4,2.9,2.1s1.8,1.8,2,3c.4,2-1.2,4.1-3.1,4.6-1.9.4-3.9-.6-5.2-2.2s-1.8-3.7-1.8-5.8.4-5,1.6-7.5h0Z"/>
          <path class="st0" d="M659.2,1037.8c1.5,4.9,1.1,10.3-1,15-.6,1.3-1.3,2.6-1.7,3.9s-.4,2.9.4,4.1c1.1,1.6,3.2,2.1,5.1,2.5,2.2.5,4.7.9,6.8,0,1.6-.8,2.6-2.3,3-4s.2-3.3,0-5c-1.4-6.5-5.6-12.4-12.6-16.6h0Z"/>
          <path class="st0" d="M421.9,1033.9c-1.5,4.9-1.1,10.3,1,15,.6,1.3,1.3,2.6,1.6,3.9s.3,2.9-.4,4.1c-1.1,1.6-3.1,2.1-5,2.5-2.2.5-4.7.9-6.7,0-1.5-.8-2.6-2.3-2.9-4s-.2-3.3.1-5c1.3-6.5,5.5-12.4,12.4-16.6h-.1Z"/>
          <path class="st0" d="M663.9,1036.7c3.1,2.5,6.3,5.1,8.4,8.4.7,1.1,1.4,2.3,2.6,2.6.6.2,1.3,0,2,0,1.9-.5,3.8-1.5,4.6-3.2,1.1-2.3-.3-5.1-2.5-6.6s-4.9-1.9-7.6-2.3c-1.3-.2-2.6-.4-3.9-.3s-2.6.6-3.7,1.6h0v-.2h.1Z"/>
          <path class="st0" d="M419.3,1031.6c-3.5,2.5-7.2,5.1-9.6,8.4-.7,1.1-1.5,2.3-3,2.6-.7.2-1.5,0-2.2,0-2.1-.5-4.3-1.5-5.2-3.2-1.2-2.3.4-5.1,2.9-6.6,2.4-1.5,5.5-1.9,8.5-2.3,1.5-.2,2.9-.4,4.4-.3,1.5,0,3,.6,4.2,1.6h0v-.2Z"/>
          <path class="st0" d="M583.2,873.3c5.4-7.8,13.9-13.5,23.4-15.6,2.5-.6,5.1-.9,7.6-.2s4.7,2.5,5,5c.4,2.9-2,5.6-4.8,6.8s-6,1.2-9.1,1.4c-7.7.5-15.3,2.3-22.4,5.3-.3-1.2,0-2.5.3-2.6h0Z"/>
          <path class="st0" d="M506.8,872.6c-5.4-9.7-14.2-16.8-23.8-19.5-2.5-.7-5.2-1.1-7.7-.3s-4.7,3.2-5.1,6.2c-.4,3.6,2,7,4.9,8.5s6.1,1.5,9.3,1.7c7.9.6,15.6,2.9,22.8,6.6.3-1.5,0-3.1-.4-3.3h0Z"/>
        </g>
      </g>
    </g>
  </g>
</svg>