<?xml version="1.0" encoding="UTF-8"?>
<svg id="Layer_1" xmlns="http://www.w3.org/2000/svg" version="1.1" viewBox="0 0 1080 1920">
  <!-- Generator: Adobe Illustrator 29.2.1, SVG Export Plug-In . SVG Version: 2.1.0 Build 116)  -->
  <defs>
    <style>
      .st0, .st1 {
        fill: #fcdf3b;
      }

      .st1 {
        stroke: #fff;
        stroke-miterlimit: 10;
        stroke-width: 5px;
      }
    </style>
  </defs>
  <g id="Layer_6">
    <g id="amarillo">
      <g id="main1">
        <g>
          <path class="st0" d="M514.8,928.9c-5.5,3.4-8.8,9-11,14.7-2.2,5.6-3.7,11.6-6.7,16.9-3,5.3-8,10.2-14.6,11.5,4.3,4.8,13.1,4.5,18.7.9s8.7-9.5,11.2-15.2,4.8-11.7,9.5-16.2,12.6-7.1,19-4.4c3.1,1.4,6.6-1,10-1.7,4-.7,8,1.1,10.9,3.6,4.4,3.8,7,9,9.6,13.9s5.7,10,10.7,13.2,12.6,3.8,17,0c.3-.3.6-.6.7-.9.2-1.1-1.4-1.6-2.6-1.9-5.1-1.2-8.6-5.5-10.5-9.9-2-4.4-2.9-9.2-5.5-13.3-3.6-5.8-10-9.8-16.7-12.7-8.1-3.5-17.1-5.5-26-5.3-9,.2-18,2.8-25.1,7.7"/>
          <path class="st0" d="M501.4,976.1c6-3.8,9.9-9.6,13.2-15.4,3.3-5.8,6.2-11.9,10.8-17,1.7-1.9,3.7-3.7,6.4-4,3-.4,5.8,1.1,8.9,1.5,3.2.3,6.4-.7,9.5-1.2,3.2-.5,7.3-.8,9.6,1.5,7.3,7.5,10.6,18.1,17.4,26.4.9,1.2,1.9,2.3,3.2,3.1s3,1.2,5.2.6c-3.3,14.2-10.6,27.6-21.1,38.7-3.1,3.3-8.7,7.2-11.2,8.2-5.3,2.1-8.1,2.6-13.1,1.8-5-.8-10.5-3.4-13.8-6.3-11.6-9.3-19.5-23.7-24.9-37.9h-.1Z"/>
          <path class="st0" d="M586.1,1029.1c-4.5.9-9.1,1.3-13.7,1-1.5-.1-3.2-.4-4.1-1.5-.5-.7-.6-1.6-.6-2.5-.2-4.2-.5-8.3-.7-12.5,3.4-2.8,6.1-6.5,8.4-10.1-.7,3.9-1.5,7.9-.9,11.8.5,3.9,2.7,7.9,6.4,9.9,2,1.1,4.5,1.8,5.2,3.8h0Z"/>
          <path class="st0" d="M501.9,1029.5c4.3.8,8.7,1.1,13,.7,1.4-.1,3-.4,3.8-1.5.5-.7.5-1.6.6-2.4.1-4,.3-8,.4-12-3.3-2.7-5.9-6.1-8.1-9.5.8,3.7,1.6,7.5,1.1,11.3s-2.4,7.6-5.9,9.6c-1.8,1.1-4.3,1.8-4.9,3.7h0Z"/>
          <path class="st1" d="M504.9,1094.3c-5.8-7.4-18.3-25.5-24.6-31.9,7.7-2.3,13-4.9,20.6-8.3,7.2-3.3,15.3-5.8,17.8-12.7,2.6-6.9,6.3-17.3,3.6-24,5.6,4.4,11.8,7.9,20.6,7.5,9.5-.4,14.9-3.7,20.6-8.4h0c0,6.7.5,16.1,5.3,22.5,4.8,6.3,17,11.3,24.2,13.8,7.4,2.6,11.8,3.9,20.2,5.1.6.2.8,1.1,0,1.3-7.5,6.4-30.8,34.4-30.8,34.4l-77.6.8h0Z"/>
          <path class="st0" d="M513,928.2c-.1-9.1,5.7-18.1,14.6-22.6s20.5-4.3,29.2.5,14,14,13.4,23c-2.8,1-5.9-.9-7.6-3.1s-2.9-4.8-5.2-6.6c-2.9-2.2-7-2.5-10.8-2.7-7.8-.4-16.8-.5-22.2,4.6-1.8,1.6-3,3.7-4.7,5.4s-4.4,3-6.8,2.3c0-.4,0-.8.2-.8h-.1Z"/>
          <path class="st0" d="M551.9,890.7c2.6-11.8,10.3-22.4,19.6-31.1,9.3-8.7,20.4-15.8,31.4-22.8,10.3-6.6,22.6-13.5,34.7-10.3,9,2.4,15.5,10.4,15.7,18.8.2,8.4-5.4,16.5-13.6,20.6s-16.5,4.2-25.1,5.4c-23.1,3-45.3,11.6-63.7,24.5.4-2.3.9-4.5,1-5h0Z"/>
          <path class="st0" d="M644.7,917c-9.6-10.3-22.9-17.9-37.4-21.2-14.6-3.3-30.3-2.4-44.3,2.6,9.4.8,18.1,5.2,25.2,10.7s13.1,12.2,19.5,18.4c4.6,4.5,9.8,8.9,16.4,10.1,6.3,1.1,13.1-1,17.2-5.5,4.1-4.4,6.7-11.6,3.5-15.1h-.1Z"/>
          <path class="st0" d="M532.6,893.1c-16-7.8-34.1-12.4-52.4-13.3-13.9-.7-29.1.5-40.4-6.8-8-5.2-12.6-14.5-11.2-23.3,1.3-8.8,8.4-16.8,17.8-19.9,7-2.3,14.9-1.9,22.1,0,7.2,2,13.6,5.5,19.7,9.4,20.8,13.4,37.8,32.2,44.5,53.8h-.1Z"/>
          <path class="st0" d="M520.6,903c-8.2-4.2-17.8-5.9-27.4-6.1-9.5-.2-18.9,1.1-28.3,2.4-4.6.7-9.2,1.3-13.5,2.8s-8.4,3.8-11.1,7.2c-3.9,4.9-4.3,11.9-.9,17,3.4,5.2,10.3,8.3,17,7.6,8.7-.9,15.2-7.2,21.8-12.3,12-9.3,27.1-15.5,42.3-18.7h.1Z"/>
        </g>
      </g>
    </g>
  </g>
</svg>