<?xml version="1.0" encoding="UTF-8"?>
<svg id="Layer_1" xmlns="http://www.w3.org/2000/svg" version="1.1" viewBox="0 0 1080 1920">
  <!-- Generator: Adobe Illustrator 29.2.1, SVG Export Plug-In . SVG Version: 2.1.0 Build 116)  -->
  <defs>
    <style>
      .st0, .st1 {
        fill: #8f3e1f;
      }

      .st1 {
        stroke: #fff;
        stroke-miterlimit: 10;
        stroke-width: 13px;
      }
    </style>
  </defs>
  <g id="Layer_11" data-name="Layer_1">
    <g id="brun">
      <g id="stroke7">
        <g>
          <path class="st1" d="M527.1,1002.2c5.2,4,12.1,6.2,19.1,6,6.9-.2,13.7-2.8,18.2-6.5,1.3,10,3.1,21,12,27.4,13.2,7.1,35,6.1,35.1,12.5-7.7,9.6-16.1,19.7-28.5,24.3-8.6,3.2-18.3,3.4-27.7,3.4s-23.1,0-34.6-.3c-6-.1-12.3-.4-17.6-2.9-10.4-5.1-13.5-17.5-23.8-22.7,29.5-10,30.4-7.8,33.2-12.2,6.1-9.7,13-18.7,12.2-29.5,5.2,3.9,11.7,6.5,2.4.5h0Z"/>
          <path class="st1" d="M515.3,935.1c-5.4,5-7.5,12.4-7.2,19.5s2.8,13.9,5.6,20.5c2.7,6.5,5.7,12.9,10.4,18.3,4.7,5.4,11.4,9.5,18.8,10.1,10.1.8,19.7-5.2,25.3-13,5.6-7.8,8-17.2,10.1-26.4,2-8.5,3.7-17.9-1.2-25.3-3.3-5-9.5-7.4-15.3-9.7-6.1-2.4-12.7-2.7-19.1-2.5-10.5.4-21.1,2.8-27.5,8.7h0v-.2h.1Z"/>
          <path class="st1" d="M591.7,947.9v-.2c-2.2-2.4-2.9-5.9-1-8.8,1.9-3,5.9-4.8,9.6-3.9.2,0,.4.2.5.4.3,0,.6,0,.7.3h0c.1.1.2.2.3.3s.1.2.2.3c3.2-4.8,5.7-10.2,7.2-15.7,0,0,0-.2-.2-.2-1.6-.2-3.1-.8-4.4-1.7-2.3-1.7-3.6-4.4-3.9-7.1-.6-5.9,4.1-10.8,9.5-13.1v-.2c-.3-1.6-.6-3.2-1-4.8-.8-2.7-1.8-5.4-3-8,0,0-.2-.1-.2,0-2.2,1.3-4.6,2.3-7.2,2.7-4.7.8-9.7-.3-13.5-3-3.9-2.7-6.7-6.9-7.5-11.4-.4-2.3-.3-4.7.4-6.9.7-2.3,2-4.4,3.7-6.2.2-.2.4-.4.6-.6s0-.2,0-.2c-4.6-2.7-9.4-4.9-14.6-6.3-16.2-4.7-34.2-2.7-49.1,4.8-.1,0-.1.2,0,.3,3.7,1.5,6.5,4.5,7,8.3.7,4.3-1.3,8.8-4.8,11.6-1.8,1.4-4.1,2.3-6.5,2.5-2.6.2-5.2-.5-7.3-1.8-2.9-1.7-5.1-4.3-6.1-7.3,0-.1-.2-.2-.3,0-10.3,11.2-16.1,26-16.1,40.8h0c4.3-3.2,11.2-2.3,14.2,2,1.5,2.2,1.9,4.9,1.4,7.4-.6,2.6-2.2,4.7-4.6,6.2-2.3,1.5-5.2,1.7-7.9,1.2-.1,0-.2,0-.2.2,3,8.5,13.1,21.7,16.1,19.1,0,0-.4-.1-.3,0,3.1,1.6,3.8-4.8,5.7-9.4,0,0,0-.2-.1-.2-.5,0-.9-.2-1.3-.4-.6-.3-1.1-.8-1.5-1.3-.7-.9-1.1-2-1-3.1s.8-2,1.9-2.6c1.9-1,4.5-.8,5.9.8.2,0,.3.1.3.2.2.3.3.5.5.8h0c2-1.9,4.2-3.6,6.6-4.9,0,0,.1-.2,0-.2l-.5-.5c-.1-.1-.3-.2-.4-.4,0,0-.1,0-.2-.2h0c-.2-.3-.6-.5-.6-.9-.2-.2-.3-.5-.5-.8-2.8-4.7-3.2-10.5-1.4-15.6.9-2.5,2.3-4.9,4.3-6.9s4.6-3.4,7.3-4.4c5.5-1.9,11.9-1.6,17.2.8,5.3,2.4,8.9,7,10.2,12.3,1,4.1.8,8.7-1,12.7,0,0,0,.2.2.2,6,.5,10.3,2.7,16.2,5.2h0c-.2-.2-.2-.5,0-.7.9-.9,2.3-1.4,3.6-1.4,2.5,0,4.9,1.5,5.3,3.9.2,1.2,0,2.5-.7,3.6-.3.5-.8,1-1.3,1.4,0,0-.1,0-.2.1v.2c1,1.4,2.1,2.9,2.7,4.7.3.9,1.5,3.1,1.5,5.1,0,6.9,4.9,5.2,4.9,5.2M508.8,902.9c-.8,1.3-2.4,2.2-4.1,1.9-3-.4-4.1-4.4-2.1-6.4.2-.2.5-.2.6-.2,0-.1.1-.2.3-.3,1.6-.7,3.6-.2,4.7,1,.5.5.9,1.1,1,1.7.1.8,0,1.5-.5,2.2h.1ZM538.4,879.2c-.2,1.3-1.2,2.6-2.6,3.1h0c0,.2-.2.3-.4.3-1,.3-2.1,0-3-.6-.9-.5-1.6-1.3-2-2.2-.3-.8-.4-1.7,0-2.5.3-.7.9-1.3,1.7-1.8,1.4-.8,3.1-.9,4.6-.2.7.3,1.3.9,1.6,1.6.3.7.3,1.4.2,2.1h0v.2h-.1ZM557.9,857.3c.2-.2.5-.2.7,0,0,0,0-.2.1-.2.2-.2.4-.2.7-.3,0-.2.2-.3.4-.4,1.4-.3,2.6.5,3.2,1.7.5,1,.7,2.2.2,3.2s-1.7,1.7-2.9,1.5c-1.2-.2-2.2-1.1-2.7-2-.6-1.1-.6-2.4.2-3.4h0ZM562.4,882.4c-1.5,1.7-4,2.6-6.3,2.1-4.7-1-5.3-7.9-1.3-10.1h.4s.1-.1.2-.2c2.6-1.1,5.7,0,7.3,2.1,1.4,1.9,1.3,4.4-.3,6.2h0ZM572.6,904.4h0c0,.2-.2.4-.3.5-.2.1-.5.2-.7.4s-.2.1-.3.2c-.2,0-.3.2-.5.3h-.2c-1.5.6-3.3.2-4.5-.8s-1.8-2.8-1.1-4.2,2.4-2.6,4.1-2.5c1.6,0,3.1,1,3.8,2.4.6,1.2.7,2.8-.2,3.9h0v-.2h0ZM586.3,914.6c-2.1-.2-3.6-1.6-4.1-3.4-.5-1.7,0-3.7,1.4-4.8,0,0,.1,0,.2-.1,0-.2.1-.3.3-.4,2-1.2,4.8-.7,6.5.8,1.5,1.4,1.9,3.5,1,5.2-1,1.7-3.1,2.9-5.2,2.8h0ZM595.3,929.1c-.6.5-1.6.8-2.4.5-.2,0-.5-.2-.7-.4h0s-.2-.1-.2-.2c-.3-.3-.5-.8-.6-1.2,0-.9.4-1.7,1.2-2.2h.5s.1-.1.2-.2c.6-.3,1.3-.2,1.8.2.5.3.8.8,1,1.3.3.8,0,1.7-.6,2.3h-.2,0Z"/>
        </g>
      </g>
      <g id="main7">
        <g>
          <path class="st0" d="M526.9,1001.6c5.2,4,12.1,6.2,19.1,6,6.9-.2,13.7-2.8,18.2-6.5,1.3,10,3.1,21,12,27.4,9.8,7.1,24.8,6,35.1,12.5-7.7,9.6-16.1,19.7-28.5,24.3-8.6,3.2-18.3,3.4-27.7,3.4s-23.1,0-34.6-.3c-6-.1-12.3-.4-17.6-2.9-10.4-5.1-13.5-17.5-23.8-22.7,12.4.1,24.7-4.4,33.2-12.2,8.5-7.8,13-18.7,12.2-29.5,5.2,3.9,11.7,6.5,2.4.5h0Z"/>
          <path class="st0" d="M515,934.6c-5.4,5-7.5,12.4-7.2,19.5s2.8,13.9,5.6,20.5c2.7,6.5,5.7,12.9,10.4,18.3,4.7,5.4,11.4,9.5,18.8,10.1,10.1.8,19.7-5.2,25.3-13,5.6-7.8,8-17.2,10.1-26.4,2-8.5,3.7-17.9-1.2-25.3-3.3-5-9.5-7.4-15.3-9.7-6.1-2.4-12.7-2.7-19.1-2.5-10.5.4-21.1,2.8-27.5,8.7h0v-.2h.1Z"/>
          <path class="st0" d="M503.6,949.4c-1.5.7-2.3,2.3-2.4,3.8s.4,3,.9,4.5c.9,2.9,1.9,5.8,2.8,8.7.7,2.3,1.8,4.9,4.2,5.8-1-7.3-2.4-14.6-4.1-21.8-.1-.4-.2-.9-.7-1.2-.4-.2-1.1.2-.6.2h0Z"/>
          <path class="st0" d="M583.2,952.1c-1,6.4-2.5,12.7-4.5,18.9.7.5,1.7.5,2.5.2s1.4-1,1.9-1.7c2.8-3.6,4.7-7.8,5.5-12.1.3-1.6.3-3.4-.7-4.6s-3.7-1.2-4.7-.6h0Z"/>
          <path class="st0" d="M507.7,900.5v-.3h0v-.2h0c0-.1,0-.2-.1-.3h0c-.2-.2-.4-.4-.5-.4-.9-.6-2-.8-3-.5h-.3s0,.2-.2.2c-.2.2-.3.4-.4.6,0,0,0,.2-.1.3v.2h0c0,.7,0,1.1.2,1.6h0v.3c0,.1.2.2.2.3,0,0,.3.3.5.4,0,0,.1,0,.2.2h.3c.3,0,.5.1.7.1,1,0,2.1-.8,2.5-1.7.1-.3.2-.5.2-.7v-.2h-.2Z"/>
          <path class="st0" d="M509.6,878.1c2,.9,4.3,1.1,6.5.5,2-.5,3.7-1.6,5.1-3,2.7-2.8,4-7,2.7-10.7-1.1-3.1-3.9-5.3-7.2-6.3-2.7,1.5-5.3,3.1-7.7,5-2.5,1.8-4.7,3.9-6.8,6,.8,3.7,3.8,6.9,7.5,8.4h-.1Z"/>
          <path class="st0" d="M512.8,933.1c-.1-.2-.2-.4-.3-.5-.1,0-.2-.1-.3-.2-.5-.7-1.5-1-2.3-1s-1.7.2-2.3.6c-.7.5-1,1.1-1,1.9s.4,1.6,1,2.1c.3.3.6.5,1,.7h.3c0,.1.2.1.3.1.2,0,.5,0,.7.2h.2c.9-1.3,1.9-2.5,2.9-3.5,0-.1-.1-.2-.2-.3h0Z"/>
          <path class="st0" d="M594.5,927.2h0v-.2h0v-.2h0c0-.1,0-.2-.1-.3h0s0-.1-.2-.2h0c-.1,0,0,0,0,0h0s-.1,0-.2-.1h-.7s-.2.1-.2.2h0v.3h0v.4h0v.2s0,.1.1.2t0,0h0c0,.1.2.3.2.3h1v-.2s0-.1.2-.2h0v-.3h-.1,0Z"/>
          <path class="st0" d="M600,935.8h-.4c-1.7-.4-3.4,0-4.9.7-2.8,1.4-4.6,4.3-3.7,7.3.3,1,.9,1.9,1.6,2.6h0c3.1-2.7,5.8-5.8,8.1-9-.3-.4-.6-.9-.8-1.4h0v-.2h0Z"/>
          <path class="st0" d="M578.9,930.6c-.2-.9-.8-1.6-1.6-2-1.4-.8-3.4-.9-4.7.1v.3c0,.3-.2.5-.4.8,1.8,1.4,3.4,3,5,5.1.2-.1.4-.2.6-.4.4-.4.7-.8.9-1.2.4-.8.5-1.7.3-2.6h0Z"/>
          <path class="st0" d="M555.8,874.7h-.6c-1.6,1-2.2,3.1-1.9,4.8.3,1.6,1.6,3,3.5,3.1,1.8.1,3.7-.8,4.6-2.2,1-1.5.8-3.4-.5-4.6s-3.4-2-5.1-1.3h0v.2Z"/>
          <path class="st0" d="M591.4,947.4v-.2c-2.2-2.4-2.9-5.9-1-8.8,1.9-3,5.9-4.8,9.6-3.9.2,0,.4.2.5.4.3,0,.6,0,.7.3h0c.1.1.2.2.3.3s.1.2.2.3c3.2-4.8,5.7-10.2,7.2-15.7,0,0,0-.2-.2-.2-1.6-.2-3.1-.8-4.4-1.7-2.3-1.7-3.6-4.4-3.9-7.1-.6-5.9,4.1-10.8,9.5-13.1v-.2c-.3-1.6-.6-3.2-1-4.8-.8-2.7-1.8-5.4-3-8,0,0-.2-.1-.2,0-2.2,1.3-4.6,2.3-7.2,2.7-4.7.8-9.7-.3-13.5-3-3.9-2.7-6.7-6.9-7.5-11.4-.4-2.3-.3-4.7.4-6.9.7-2.3,2-4.4,3.7-6.2.2-.2.4-.4.6-.6s0-.2,0-.2c-4.6-2.7-9.4-4.9-14.6-6.3-16.2-4.7-34.2-2.7-49.1,4.8-.1,0-.1.2,0,.3,3.7,1.5,6.5,4.5,7,8.3.7,4.3-1.3,8.8-4.8,11.6-1.8,1.4-4.1,2.3-6.5,2.5-2.6.2-5.2-.5-7.3-1.8-2.9-1.7-5.1-4.3-6.1-7.3,0-.1-.2-.2-.3,0-10.3,11.2-16.1,26-16.1,40.8h0c4.3-3.2,11.2-2.3,14.2,2,1.5,2.2,1.9,4.9,1.4,7.4-.6,2.6-2.2,4.7-4.6,6.2-2.3,1.5-5.2,1.7-7.9,1.2-.1,0-.2,0-.2.2,3,8.5,13.1,21.7,16.1,19.1,0,0-.4-.1-.3,0,3.1,1.6,3.8-4.8,5.7-9.4,0,0,0-.2-.1-.2-.5,0-.9-.2-1.3-.4-.6-.3-1.1-.8-1.5-1.3-.7-.9-1.1-2-1-3.1s.8-2,1.9-2.6c1.9-1,4.5-.8,5.9.8.2,0,.3.1.3.2.2.3.3.5.5.8h0c2-1.9,4.2-3.6,6.6-4.9,0,0,.1-.2,0-.2l-.5-.5c-.1-.1-.3-.2-.4-.4,0,0-.1,0-.2-.2h0c-.2-.3-.6-.5-.6-.9-.2-.2-.3-.5-.5-.8-2.8-4.7-3.2-10.5-1.4-15.6.9-2.5,2.3-4.9,4.3-6.9s4.6-3.4,7.3-4.4c5.5-1.9,11.9-1.6,17.2.8,5.3,2.4,8.9,7,10.2,12.3,1,4.1.8,8.7-1,12.7,0,0,0,.2.2.2,6,.5,10.3,2.7,16.2,5.2h0c-.2-.2-.2-.5,0-.7.9-.9,2.3-1.4,3.6-1.4,2.5,0,4.9,1.5,5.3,3.9.2,1.2,0,2.5-.7,3.6-.3.5-.8,1-1.3,1.4,0,0-.1,0-.2.1v.2c1,1.4,2.1,2.9,2.7,4.7.3.9,1.5,3.1,1.5,5.1,0,6.9,4.9,5.2,4.9,5.2M508.5,902.4c-.8,1.3-2.4,2.2-4.1,1.9-3-.4-4.1-4.4-2.1-6.4.2-.2.5-.2.6-.2,0-.1.1-.2.3-.3,1.6-.7,3.6-.2,4.7,1,.5.5.9,1.1,1,1.7.1.8,0,1.5-.5,2.2h.1ZM538.1,878.7c-.2,1.3-1.2,2.6-2.6,3.1h0c0,.2-.2.3-.4.3-1,.3-2.1,0-3-.6-.9-.5-1.6-1.3-2-2.2-.3-.8-.4-1.7,0-2.5.3-.7.9-1.3,1.7-1.8,1.4-.8,3.1-.9,4.6-.2.7.3,1.3.9,1.6,1.6.3.7.3,1.4.2,2.1h0v.2h-.1ZM557.7,856.8c.2-.2.5-.2.7,0,0,0,0-.2.1-.2.2-.2.4-.2.7-.3,0-.2.2-.3.4-.4,1.4-.3,2.6.5,3.2,1.7.5,1,.7,2.2.2,3.2s-1.7,1.7-2.9,1.5c-1.2-.2-2.2-1.1-2.7-2-.6-1.1-.6-2.4.2-3.4h0ZM562.1,881.9c-1.5,1.7-4,2.6-6.3,2.1-4.7-1-5.3-7.9-1.3-10.1h.4s.1-.1.2-.2c2.6-1.1,5.7,0,7.3,2.1,1.4,1.9,1.3,4.4-.3,6.2h0ZM572.4,903.9h0c0,.2-.2.4-.3.5-.2.1-.5.2-.7.4s-.2.1-.3.2c-.2,0-.3.2-.5.3h-.2c-1.5.6-3.3.2-4.5-.8s-1.8-2.8-1.1-4.2,2.4-2.6,4.1-2.5c1.6,0,3.1,1,3.8,2.4.6,1.2.7,2.8-.2,3.9h0v-.2h0ZM586,914.1c-2.1-.2-3.6-1.6-4.1-3.4-.5-1.7,0-3.7,1.4-4.8,0,0,.1,0,.2-.1,0-.2.1-.3.3-.4,2-1.2,4.8-.7,6.5.8,1.5,1.4,1.9,3.5,1,5.2-1,1.7-3.1,2.9-5.2,2.8h0ZM595.1,928.6c-.6.5-1.6.8-2.4.5-.2,0-.5-.2-.7-.4h0s-.2-.1-.2-.2c-.3-.3-.5-.8-.6-1.2,0-.9.4-1.7,1.2-2.2h.5s.1-.1.2-.2c.6-.3,1.3-.2,1.8.2.5.3.8.8,1,1.3.3.8,0,1.7-.6,2.3h-.2,0Z"/>
          <path class="st0" d="M562,858.9c0-.1,0-.2-.1-.3v-.2h0c0-.2-.2-.4-.3-.5,0,0-.1-.2,0-.1h0l-.2-.2h-.1s-.2-.1-.2-.2h-1.8c0,.1,0,.2-.2.4h0v.3h0v.5h0v.5h0v.3c0,.1,0,.2.1.4,0,.2.2.4.3.6,0,0,0,.1.1.2h0c0,.2.2.2.2.3l.2.2h.2c.1,0,.2.1.3.2h1s.2-.1.3-.2h0s0-.2.2-.2h0c0-.1,0-.2.2-.3h0v-.5h0v-.9h0l-.2-.3Z"/>
          <path class="st0" d="M584.5,906.3h-.2s0,.1-.2.2c-1.3,1-1.6,2.8-1,4.2s1.9,2.3,3.5,2.2c1.6,0,3.3-1.2,3.8-2.7,1.1-3.1-3.2-5.5-6-4h.1Z"/>
          <path class="st0" d="M603.7,904.4c-1.4,2.1-2.2,4.7-1.7,7.2.4,2.3,1.7,4.5,3.8,5.8,1,.6,2.2.9,3.4,1,1.5-6.3,1.8-12.8,1-19.2-2.6,1.2-5,2.9-6.5,5.2h0Z"/>
          <path class="st0" d="M570,904.1s.1,0,.2-.2c0,0,.1,0,.2-.1.1,0,.2-.1.3-.2.1,0,.2-.2.4-.2.1-.3.2-.5.3-.8v-.5h0v-.3c0-.5-.1-1.1-.4-1.6-.5-.9-1.5-1.6-2.7-1.5-1.2,0-2.4,1-2.8,2.1-.3,1.1.2,2.3,1.2,2.9.9.6,2,.8,3,.4h.1c0-.1.2,0,.2,0h0Z"/>
          <path class="st0" d="M579.4,868.4c-.4,2-.3,4.1.2,6.1,1.1,4.1,3.9,7.8,7.7,10,3.8,2.1,8.4,2.7,12.7,1.6,1.9-.5,3.8-1.3,5.5-2.3-4.7-9.4-12.1-17.5-21.3-23.4-.8.7-1.4,1.4-2.1,2.2-1.3,1.7-2.3,3.7-2.7,5.8h0Z"/>
          <path class="st0" d="M535.4,875.8c-1.1-.3-2.3,0-3.1.6-.4.4-.8.9-.9,1.4h0v.4h0v.3c0,.4.2.5.4.8.3.5.8.9,1.4,1.2s.2,0,.4.2c.2,0,.3,0,.5.1h.7s.2-.2.3-.2c1.2-.3,1.9-1.6,1.9-2.7s0-1-.3-1.4c-.2-.4-.8-.7-1.3-.8h0Z"/>
          <path class="st0" d="M553.8,909.6c-1.7-4.8-5.6-8.7-10.7-10.5-5.1-1.7-11.1-1.6-16,.7-5,2.3-8.3,6.5-9.5,11.5-1.1,4.8-.3,9.9,2.6,14.1,0,0,0,.1.2.2.2.2.4.4.6.6l.9.9c5.3-2.5,11.8-3.6,20.4-3.6s7.4,0,10.8.2c2.3-4.3,2.5-9.6.9-14.1h-.2,0Z"/>
          <path class="st0" d="M496.2,925c3.2-3.1,3.3-8.6-.3-11.4-3.2-2.6-8.9-2.1-11.2,1.2h0c.2,3.8,1,8,2.2,12.1,1,.3,2.1.5,3.2.5,2.4,0,4.5-.8,6.1-2.4h0Z"/>
        </g>
      </g>
    </g>
  </g>
</svg>