<?xml version="1.0" encoding="UTF-8"?>
<svg id="Layer_1" xmlns="http://www.w3.org/2000/svg" version="1.1" viewBox="0 0 489.2 788.9">
  <!-- Generator: Adobe Illustrator 29.0.1, SVG Export Plug-In . SVG Version: 2.1.0 Build 192)  -->
  <defs>
    <style>
      .st0 {
        stroke: #231f20;
        stroke-width: 9px;
      }

      .st0, .st1, .st2 {
        fill: #fff;
      }

      .st0, .st2 {
        stroke-miterlimit: 10;
      }

      .st2 {
        stroke: #221f1f;
        stroke-width: 3px;
      }

      .st3 {
        fill: #161616;
      }
    </style>
  </defs>
  <g id="Layer_2">
    <path id="Arrow" class="st0" d="M172.8,169.7c1.7-21,54.4-31.3,54.4-31.3-23.5-6.9-40.7-15.2-57.3-29.6-14.8-12.9-25.8-54.6-25.8-54.6,0,0-10.8,36.3-27.2,53.4-13.3,13.9-55.7,23.6-55.7,23.6,17,6.3,32.5,11.4,49.8,22.4,12.4,7.9,12,26.9,12,26.9l-2.3,59.7-11.4,29.3,56.6,34.7s5.7-118.2,7-134.5h0Z"/>
  </g>
  <g id="Final">
    <path class="st0" d="M338.2,472.8c3.1-33.5,100.5-50,100.5-50-43.3-11.1-75.2-24.2-105.7-47.3-27.3-20.6-47.7-87.2-47.7-87.2,0,0-20,58.1-50.2,85.4-24.6,22.2-102.9,37.7-102.9,37.7,31.3,10.1,60.1,18.2,92,35.8,22.8,12.6,22.1,42.9,22.1,42.9l-5.3,116.7-24.4,61.8,102.2,76.7s17.3-246.6,19.7-272.5h-.3Z"/>
  </g>
  <g id="flavour">
    <path id="Arrow1" class="st2" d="M282.5,200.3c-.5,10.9-23.4,17-23.4,17,10.4,3.3,18.1,7.3,25.6,14.6,6.7,6.4,12.2,27.9,12.2,27.9,0,0,4.2-19,11.1-28.1,5.6-7.4,24.1-13,24.1-13-7.5-3-14.5-5.4-22.2-10.9-5.6-3.9-5.6-13.7-5.6-13.7,0,0,2.2-18.4,4.1-28.1,6.7-33.4,14-55,14-55l-34.9,18.1s-4.7,62.8-4.9,71.3h-.1Z"/>
  </g>
  <g id="Layer_16">
    <g id="Layer_14">
      <g>
        <path class="st3" d="M258.1,381s-7,2.9-8.7,4.7c-8.3,8.7-4.7,22.3-4.7,22.3,1.4,5.2,12.8,13.4,19.5,11.4,5.6-1.6,11.5-6.9,14.7-16.6,4.1-12.3,6.6-16.1,12.1-26.3,5.8-10.7,16.6-22.8,25.7-24.3,10.8-1.8,23.4,4,31.1,12.6,5.1,5.7,8.3,13.2,10.8,20.9,8.9,28.1,5.9,63.8-4.8,91.1-8.8-15.3-13.9-25.9-25.1-45.5,5.1.6,7.5.4,12.9-.8,4.3-1,8.2-3.9,10.6-8.2,3.4-6.1,3.9-13.7.2-19.4-3.7-5.7-9.2-8.5-15.2-10.3-4.9-1.5-9.3-.8-13.6,1.1-6.4,3-10.1,11.4-12.6,19.4s-3.1,15.7-5.8,23.6c-4,11.8-14.7,20.6-25,25.1s-21.9,1.4-30.8-5.9c-4.7-3.9-9.9-10.1-13.2-18.2-12.6-30.1-13.1-76.1,4.7-97.8"/>
        <path class="st3" d="M312.6,534.1c-14.7-4.8-33.2-11.7-50.5-18.5-.7,11.3-1.5,25.3-2.2,36.7,1.7,1.3,1.9,1.3,4.9,3.2.7-6.3,1.2-11,1.9-17,4.5,1.2,15.2,4.8,15.2,4.8l2.6,1s-.2,2.2-.5,4.9c-.6,5.4-.8,6.1-.8,6.1v.6s.3.3,5.3,3.8c.5-4.4.9-7.8,1.5-13.6,5.2,1.7,10.5,3.6,15.8,5.3-.4,5.2-.7,9.9-1.1,16.1l4.8,4,1.7-21.4"/>
        <path class="st3" d="M296,666.1c-14.5-11.1-24.5-19.4-44.2-34.4-3.6,10.9-6.6,19.4-10.3,28.8,1.6,1.4,2.3,1.6,4.9,4.2,2-5.2,3.3-8.5,5.6-13.4,9.7,7.3,13.2,10.2,13.2,10.2l2.1,1.8s-.8,1.8-1.7,3.8l-1.4,3.1-2.2,4.7,4.3,4c1.6-3.4,3.5-7.4,5.6-12,4.3,3.5,8.6,7.2,12.9,10.7-1.7,4.4-3,7.9-5.5,13.7l4.5,4.2,6.8-16.3"/>
        <path class="st3" d="M314.6,505.4s-3.9-.2-8.3,0c-9.2.4-15.7.7-25.2,1.1-.2,0-.4.1-.5.4-.1.4.2.6.5.8,10.8,5.1,21.2,10.2,32.1,15.6.2,0,.3.3.3.6l-.4,7.2c0,.4-.4.7-.7.5-2.3-1-10-4.2-10-4.2,0,0-17.2-7.5-18-7.9l-16.8-7.5c-2.2-1-4-1.8-4.7-2.2-.2-.1-.3-.3-.3-.6,0-1.2.3-4.6.4-6.2.3-5.9.6-10.8,1.3-17,0-.3.3-.5.5-.6,10.6-.2,19.4.1,29.4,0,.6,0,.7-.9.2-1.2-9.4-4.7-18.6-9.2-28.4-13.8-.2-.1-.4-.4-.3-.6,0-.6,0-.8.1-1.5,0-.3.5-.5.5-.5,0,0,14.8,0,21.3-4.6,6.6-4.7,15.5-12.2,17.7-18,0,0,2.6.2,2.8.2,2.7.2,4.1.4,6.5.5.2,0,.4,0,.5.2l4.6,11.3,3.4,9.4c-3.2.1-10.1.6-12.7.8-12.1,1-17.3,1.7-28.2,3.1h-.6s.6.2.9.2,19.4,8.6,28.6,12.2c1.4.6,2.4,1.1,2.9,1.3,1.1.5,2,.8,2,.8-.1,2.1-.6,10-.7,11.1"/>
        <path class="st3" d="M262.9,518.8c-1,11.4-1.8,22.7-2.5,34.1-.3,0-.4-.6-.2-.9"/>
        <path class="st3" d="M258.1,577.7l1.6-21.2c0-.5.6-.7.9-.4,1.6,1.4,3.3,2.6,5.1,3.8.8.6,6.5,2.2,17.5,5.1,10.3,2.8,19.3,4.8,20.5,5.1,0,0,.1,0,.2,0,1.1.9,2.9,2.4,5.4,4.7h0c-1.1,16.4-1.7,26.5-2.5,38.5,0,0,0,.3-.2.4-2.4,2.3-5.7,3.6-8.8,3.2-3.3-.4-5.8-1.6-8.8-4.2-1.2-1-3.1-3.5-4.6-9.9,0-.3-.4-.4-.6-.4h0c-8.7,2-17.8,4.8-26.7,7.2-.6.2-.5.7-.4-2.1.3-6.7.2-8,.5-15.4,0,0,.2-.5.4-.6,7.3-2.4,15.3-4.3,22.7-6.4.6-.2.6-1,0-1.2-7.7-2.1-13.1-3.3-21.7-5.8-.3,0-.4-.3-.4-.6h-.1Z"/>
        <path class="st3" d="M253.8,626.2s1.7,1.3,3.5,2.9c15.5,13,24.4,19.9,40.9,32.7,2.1-5.6,2.4-6.2,3.7-10.4,0,0-4.9-4-6-4.9-8.7-7.3-10.6-9.3-21.2-18.6,10.8,1.4,19.4,3.6,30.2,5.3.6-6.1.9-9.4,1.2-13.1-4.1,2.5-7.1,2.8-10.9,1.5-4.1-1.4-7.5-4.5-10.1-7.7-1.4-1.9-2.3-3.7-3-7-3.4,1.1-8.5,3.3-10,3.7-1,.3-11.7,3.7-16.1,5.5"/>
        <path class="st1" d="M302.6,589.4c-4.2-1.2-8.4-2.3-12.6-3.5-.4,3.8.2,7.9,1.5,10.9s3.2,4.7,5.1,5.2c1.8.5,3.8-.2,5.1-2.6,1.4-2.4,1.9-6.8,1-9.9h-.1Z"/>
      </g>
    </g>
  </g>
</svg>