<?xml version="1.0" encoding="UTF-8"?>
<svg id="Layer_1" xmlns="http://www.w3.org/2000/svg" version="1.1" viewBox="0 0 1080 1920">
  <!-- Generator: Adobe Illustrator 29.2.1, SVG Export Plug-In . SVG Version: 2.1.0 Build 116)  -->
  <defs>
    <style>
      .st0, .st1 {
        fill: #eda4c9;
      }

      .st1 {
        stroke: #fff;
        stroke-miterlimit: 10;
        stroke-width: 13px;
      }
    </style>
  </defs>
  <g id="Layer_3">
    <g id="pink">
      <g id="stroke5">
        <g>
          <path class="st1" d="M576.5,930.4v-.7c0-.4,0-.9-.3-1.2-.4-.5-1.1-.5-1.6-.2s-.9.8-1.1,1.4c0-.2-6.6,18.3-8.3,26.8,1-7.1.3-11.2,1.1-21.1.4-4.5-.8-9.4-1.6-11.9-.1-.2-.2-.4-.3-.5-.2-.3-.4-.6-.6-.9-.5-.6-1-1.2-1.5-1.7s-.3-.3-.4-.4l-2.4-1.9c-.2-.1-.5-.3-.7-.4-.8.3-5.1,2-6.7,2.7-10.6,4.8-23,5.6-34.1,2.2-3.3-1-8.1-2.5-8.1-2.5l-1.4,1.9c-.8,1.3-1.5,2.7-2.1,4.2-.2.4-.3.8-.5,1.3-.2,1-.5,2.2-1.1,3.6-.6,2.2-1,4.5-1.1,6.8-.1,2,0,4,.1,6,.2,2,.7,4,1.1,5.9h0c.4,1.5.7,2.7,1.1,3.7-.2-.3-.4-.6-.6-.8h0c.1.5-.5.7-.6.4-.7-1.6-1.4-3.3-2.1-4.9-.2-.6-.5-1.1-.7-1.7-.1,0-.2,0-.3-.3-.2-.6-.3-1.1-.5-1.7-2-4.7-3.9-9.3-6.1-13.9-.2-.2-.4-.5-.7-.7-3.2,3.8-2.9,9.6-.9,14.1,2,4.6,5.4,8.3,8.3,12.3,6.9,9.5,11.9,21.2,22.2,26.8,7.2,3.9,16.4,4.1,23.7.4,9.5-4.8,13.7-15.6,19.7-24.4,8.2-11.8,9.6-28.2,9-28.5h.1v-.2h0Z"/>
          <path class="st1" d="M556.1,982.8c.3,6.2,2,11.9,3.7,17.9s5,13.6,10.8,15.8c15.3,5.5,23.9,8.3,35.2,13.2-14.8,12.1-19,16.2-31.2,28.4-20.4,1.1-40.8,2-61.2,2.1-3.8,0-13-.2-13-.2l-10.3-11.1c-8.6-8.6-9.9-10.9-16.1-18.5,11.8-2.9,21.8-8.2,31.3-14.4,9.2-6,11.9-17.3,11.9-31.9,4.9,4,12.7,6.4,20.1,6.7,6.7.3,13.8-3,18.7-7.9h.1Z"/>
          <path class="st1" d="M576.5,930.4v-.7c0-.4,0-.9-.3-1.2-.4-.5-1.1-.5-1.6-.2s-.9.8-1.1,1.4c0-.2-6.6,18.3-8.3,26.8,1-7.1.3-11.2,1.1-21.1.4-4.5-.8-9.4-1.6-11.9-.1-.2-.2-.4-.3-.5-.2-.3-.4-.6-.6-.9-.5-.6-1-1.2-1.5-1.7s-.3-.3-.4-.4l-2.4-1.9c-.2-.1-.5-.3-.7-.4-.8.3-5.1,2-6.7,2.7-10.6,4.8-23,5.6-34.1,2.2-3.3-1-8.1-2.5-8.1-2.5l-1.4,1.9c-.8,1.3-1.5,2.7-2.1,4.2-.2.4-.3.8-.5,1.3-.2,1-.5,2.2-1.1,3.6-.6,2.2-1,4.5-1.1,6.8-.1,2,0,4,.1,6,.2,2,.7,4,1.1,5.9h0c.4,1.5.7,2.7,1.1,3.7-.2-.3-.4-.6-.6-.8h0c.1.5-.5.7-.6.4-.7-1.6-1.4-3.3-2.1-4.9-.2-.6-.5-1.1-.7-1.7-.1,0-.2,0-.3-.3-.2-.6-.3-1.1-.5-1.7-2-4.7-3.9-9.3-6.1-13.9-.2-.2-.4-.5-.7-.7-3.2,3.8-2.9,9.6-.9,14.1,2,4.6,5.4,8.3,8.3,12.3,6.9,9.5,11.9,21.2,22.2,26.8,7.2,3.9,16.4,4.1,23.7.4,9.5-4.8,13.7-15.6,19.7-24.4,8.2-11.8,9.6-28.2,9-28.5h.1v-.2h0Z"/>
          <path class="st1" d="M556.1,982.8c.3,6.2,2,11.9,3.7,17.9s5,13.6,10.8,15.8c15.3,5.5,23.9,8.3,35.2,13.2-14.8,12.1-19,16.2-31.2,28.4-20.4,1.1-40.8,2-61.2,2.1-3.8,0-13-.2-13-.2l-10.3-11.1c-8.6-8.6-9.9-10.9-16.1-18.5,11.8-2.9,21.8-8.2,31.3-14.4,9.2-6,11.9-17.3,11.9-31.9,4.9,4,12.7,6.4,20.1,6.7,6.7.3,13.8-3,18.7-7.9h.1Z"/>
        </g>
      </g>
      <g id="main5">
        <g>
          <path class="st0" d="M576.1,908.9c2.1-1.8,3.4-4.5,3.5-7.3-.7,1-1.5,2.1-2.7,2.5s-2.8-.5-2.6-1.8c.1-.7.8-1.3,1.4-1.7,5.3-4.1,8.9-10.2,10.3-17-4.9,2.4-10.3,3.9-15.7,4.3-5.1,6.8-14.6,9.9-22.7,7.4-3.9,4.9-12,5.8-17.5,1.3,5.7,1.1,11.8-1.2,15.4-5.7,4.1,2.7,9.6,2.3,14,.2,4.4-2,8-5.5,11.5-8.9,1-5.6,1.4-11.3,1.2-17,0-1.1-.5-2.5-1.6-2.3-.6,0-.9.6-1.2,1.1-4.9,8.2-11.6,15.2-19.5,20.6-4.4,3-9.4,5.5-14.7,6.3-5.3.7-11.1-.6-15-4.3-9.5-4.1-17.2-12.5-20.6-22.4-1.7,1.2-1.9,3.7-2,5.8,0,6.3,0,13,3.7,18.2-5.5,0-10.9-1.7-15.5-4.6,1.7,6.3,4.9,12.1,9.1,17,3.2,3.3,8.2,5.3,13.3,5.4s10.2-1.6,14.2-4.8c3.5,2.6,7.5,3.8,11.4,3.8s7.9-1.4,11-3.8c-1.6,2.9-4.2,5.3-7.2,6.7-4.8,1.8-10.7,1.2-15.3-1.7-1.7,1.9-4.3,2.9-6.9,3.3s-5.2.1-7.7,0c-2-.2-3.9-.3-5.8-.9-4-1.2-7.4-4-10.6-6.8,1.2,2.7,2.9,5.4,4.8,7.9.4.6.9,1.2,1,1.9s-.2,1.5-.9,1.7c-.6.2-1.1-.1-1.6-.5-1.5-1-2.8-2.2-3.8-3.6-.4,3.3,4.1,5.5,3.8,8.8-.3.7-1.4.7-2,.2s-.9-1.3-1.1-2c-.6,2.9,0,6,1.8,8.3.8,1.1,1.8,2,2.1,3.4v1s.1,0,.2.1c0,0,.1.1.1.2,1,.8,1.7,2,2.3,3.2.2.3.4.6.5,1l3.9,12.5c.1.2.2.5.3.7-.5-2-.8-4.1-.9-6.2-.3-3.9,0-7.8.9-11.5,0-.4,0-.8.1-1.2h0v-.2c.1-.3.2-.5.3-.7,0-.1,0-.3.1-.4v-.3c.2-.6.5-1.2.7-1.8h0v-.6c0-1.3.8-2.4,1.7-3.4.6-1.3,1.3-2.6,2.1-3.8,0,0,.1,0,.2-.1v-.6c2.8,2.8,6.3,4.8,10.1,5.7,1.1.3,2.3.5,3.5.6,2.9.4,5.9.7,8.8.8h6c8.3-.4,16.4-3.9,22.6-9.5,0-.2.2-.3.4-.4.1,0,.2-.2.4-.3v.6c1,1.3,1.9,2.6,2.8,4,0,0,.1,0,.2.1.2.4.4.7.6,1.1,0,0,0,.1.1.2.3.3.5.6.7.9.3.4.6.9.9,1.4.1,0,.2,0,.2.2.1.3.2.5.3.8.2.5.4,1,.6,1.5v.3c.4,1.3.7,2.7.9,4.1h0c0,.3.1.6.1.8.7,3.4.7,6.8.2,10.1h0v.3c-.2,1.8-.4,3.7-.7,5.5,0,1-.1,2-.2,3,.9-6.1,1.9-12.3,5.1-17.5,2.3-3.8,5.6-6.9,7.3-10.9-1,.6-2,1.3-3.2,1.3s-2.4-.9-2.3-2.1c0-.7.6-1.3,1.1-1.7,1.5-1.4,3-2.9,4.4-4.3-.8.5-1.7,1-2.7,1.1s-2-.6-2.1-1.6c0-1,.8-1.7,1.6-2.3h0l.5-.7h0Z"/>
          <path class="st0" d="M533.2,854.9c-1.4,7.5-3.8,14.8-7.2,21.7-1.1,2.2-2.3,4.8-1.3,7.1s3.8,3.1,6.3,3.3c2.9.3,5.8,0,8.6-.6,2-.5,4.3-1.5,4.9-3.5.4-1.3-.1-2.7-.6-4-3.3-8.5-6.8-16.9-10.4-25.3-.1.7-.2,1.4-.2,1.2h0Z"/>
          <path class="st0" d="M576.5,930.4v-.7c0-.4,0-.9-.3-1.2-.4-.5-1.1-.5-1.6-.2s-.9.8-1.1,1.4c0-.2-6.6,18.3-8.3,26.8,1-7.1.3-11.2,1.1-21.1.4-4.5-.8-9.4-1.6-11.9-.1-.2-.2-.4-.3-.5-.2-.3-.4-.6-.6-.9-.5-.6-1-1.2-1.5-1.7s-.3-.3-.4-.4l-2.4-1.9c-.2-.1-.5-.3-.7-.4-.8.3-5.1,2-6.7,2.7-10.6,4.8-23,5.6-34.1,2.2-3.3-1-8.1-2.5-8.1-2.5l-1.4,1.9c-.8,1.3-1.5,2.7-2.1,4.2-.2.4-.3.8-.5,1.3-.2,1-.5,2.2-1.1,3.6-.6,2.2-1,4.5-1.1,6.8-.1,2,0,4,.1,6,.2,2,.7,4,1.1,5.9h0c.4,1.5.7,2.7,1.1,3.7-.2-.3-.4-.6-.6-.8h0c.1.5-.5.7-.6.4-.7-1.6-1.4-3.3-2.1-4.9-.2-.6-.5-1.1-.7-1.7-.1,0-.2,0-.3-.3-.2-.6-.3-1.1-.5-1.7-2-4.7-3.9-9.3-6.1-13.9-.2-.2-.4-.5-.7-.7-3.2,3.8-2.9,9.6-.9,14.1,2,4.6,5.4,8.3,8.3,12.3,6.9,9.5,11.9,21.2,22.2,26.8,7.2,3.9,16.4,4.1,23.7.4,9.5-4.8,13.7-15.6,19.7-24.4,8.2-11.8,9.6-28.2,9-28.5h.1v-.2h0Z"/>
          <path class="st0" d="M558.9,979.6c1.8-3.8,3.6-7.6,5.5-11.4,3.8,6.7,12.2,10.2,19.8,8.8-2.6,3.7-6.9,6.1-11.4,6.4-1.8,0-3.7,0-5.5.2s-3.7,1.2-4.5,2.9c1.7-.4,3.5-.2,5.1.6,1.8.9,3.2,2.4,4.8,3.6,4.8,3.6,11.6,4.4,17,1.8-2.2,3.2-4.7,6.3-7.9,8.4-3.2,2.2-7.2,3.4-10.9,2.4-4.5-1.1-7.9-5.2-9.6-9.6-1.6-4.4-1.8-9.3-2.4-14h0Z"/>
          <path class="st0" d="M514.6,982.1c-2.3-3.7-4.7-7.4-7.1-11.1-4,6.9-13.6,10.8-22.6,9.7,3.2,3.6,8.4,5.8,13.6,5.8s4.3-.3,6.4,0c2.1.2,4.4,1,5.4,2.7-2-.3-4.1,0-6,.8-2,.9-3.6,2.5-5.3,3.8-5.4,3.9-13.2,4.9-19.7,2.6,2.7,3.1,5.8,6,9.6,8,3.8,2,8.6,3,12.9,1.9,5.2-1.3,8.9-5.6,10.6-10,1.6-4.5,1.6-9.3,2-14.1h.2Z"/>
          <path class="st0" d="M556.1,982.8c.3,6.2,2,11.9,3.7,17.9s5,13.6,10.8,15.8c15.3,5.5,23.9,8.3,35.2,13.2-14.8,12.1-19,16.2-31.2,28.4-20.4,1.1-40.8,2-61.2,2.1-3.8,0-13-.2-13-.2l-10.3-11.1c-8.6-8.6-9.9-10.9-16.1-18.5,11.8-2.9,21.8-8.2,31.3-14.4,9.2-6,11.9-17.3,11.9-31.9,4.9,4,12.7,6.4,20.1,6.7,6.7.3,13.8-3,18.7-7.9h.1Z"/>
          <path class="st0" d="M576.1,908.9c2.1-1.8,3.4-4.5,3.5-7.3-.7,1-1.5,2.1-2.7,2.5s-2.8-.5-2.6-1.8c.1-.7.8-1.3,1.4-1.7,5.3-4.1,8.9-10.2,10.3-17-4.9,2.4-10.3,3.9-15.7,4.3-5.1,6.8-14.6,9.9-22.7,7.4-3.9,4.9-12,5.8-17.5,1.3,5.7,1.1,11.8-1.2,15.4-5.7,4.1,2.7,9.6,2.3,14,.2,4.4-2,8-5.5,11.5-8.9,1-5.6,1.4-11.3,1.2-17,0-1.1-.5-2.5-1.6-2.3-.6,0-.9.6-1.2,1.1-4.9,8.2-11.6,15.2-19.5,20.6-4.4,3-9.4,5.5-14.7,6.3-5.3.7-11.1-.6-15-4.3-9.5-4.1-17.2-12.5-20.6-22.4-1.7,1.2-1.9,3.7-2,5.8,0,6.3,0,13,3.7,18.2-5.5,0-10.9-1.7-15.5-4.6,1.7,6.3,4.9,12.1,9.1,17,3.2,3.3,8.2,5.3,13.3,5.4s10.2-1.6,14.2-4.8c3.5,2.6,7.5,3.8,11.4,3.8s7.9-1.4,11-3.8c-1.6,2.9-4.2,5.3-7.2,6.7-4.8,1.8-10.7,1.2-15.3-1.7-1.7,1.9-4.3,2.9-6.9,3.3s-5.2.1-7.7,0c-2-.2-3.9-.3-5.8-.9-4-1.2-7.4-4-10.6-6.8,1.2,2.7,2.9,5.4,4.8,7.9.4.6.9,1.2,1,1.9s-.2,1.5-.9,1.7c-.6.2-1.1-.1-1.6-.5-1.5-1-2.8-2.2-3.8-3.6-.4,3.3,4.1,5.5,3.8,8.8-.3.7-1.4.7-2,.2s-.9-1.3-1.1-2c-.6,2.9,0,6,1.8,8.3.8,1.1,1.8,2,2.1,3.4v1s.1,0,.2.1c0,0,.1.1.1.2,1,.8,1.7,2,2.3,3.2.2.3.4.6.5,1l3.9,12.5c.1.2.2.5.3.7-.5-2-.8-4.1-.9-6.2-.2-2.7-.1-5.5.3-8.2,0-.7,0-1.3.3-2,.1-.5.2-.9.3-1.4,0-.4,0-.8.1-1.2h0v-.2c.1-.3.2-.5.3-.7,0-.1,0-.3.1-.4v-.3c.2-.6.5-1.2.7-1.8,0,0,.1-.1.1-.2.2-.5.4-1,.6-1.6.1-.5.3-1,.6-1.5.7-1.6,1.6-3.2,2.5-4.7,0,0,.1,0,.2-.1v-.6c2.8,2.8,6.3,4.8,10.1,5.7,1.1.3,2.3.5,3.5.6,2.9.4,5.9.7,8.8.8h6c8.3-.4,16.4-3.9,22.6-9.5,0-.2.2-.3.4-.4.1,0,.2-.2.4-.3.3.6.6,1.1.8,1.6.7,1,1.4,2,2,3,0,0,.1,0,.2.1.2.4.4.7.6,1.1,0,0,0,.1.1.2.3.3.5.6.7.9.3.4.6.9.9,1.4.1,0,.2,0,.2.2.1.3.2.5.3.8.2.5.4,1,.6,1.5v.3c.4,1.3.7,2.7.9,4.1h0c0,.3.1.6.1.8.7,3.4.7,6.8.2,10.1h0v.3c-.2,1.8-.4,3.7-.7,5.5,0,1-.1,2-.2,3,.9-6.1,1.9-12.3,5.1-17.5,2.3-3.8,5.6-6.9,7.3-10.9-1,.6-2,1.3-3.2,1.3s-2.4-.9-2.3-2.1c0-.7.6-1.3,1.1-1.7,1.5-1.4,3-2.9,4.4-4.3-.8.5-1.7,1-2.7,1.1s-2-.6-2.1-1.6c0-1,.8-1.7,1.6-2.3h0l.5-.4h0Z"/>
          <path class="st0" d="M533.2,854.9c-1.4,7.5-3.8,14.8-7.2,21.7-1.1,2.2-2.3,4.8-1.3,7.1s3.8,3.1,6.3,3.3c2.9.3,5.8,0,8.6-.6,2-.5,4.3-1.5,4.9-3.5.4-1.3-.1-2.7-.6-4-3.3-8.5-6.8-16.9-10.4-25.3-.1.7-.2,1.4-.2,1.2h0Z"/>
          <path class="st0" d="M576.5,930.4v-.7c0-.4,0-.9-.3-1.2-.4-.5-1.1-.5-1.6-.2s-.9.8-1.1,1.4c0-.2-6.6,18.3-8.3,26.8,1-7.1.3-11.2,1.1-21.1.4-4.5-.8-9.4-1.6-11.9-.1-.2-.2-.4-.3-.5-.2-.3-.4-.6-.6-.9-.5-.6-1-1.2-1.5-1.7s-.3-.3-.4-.4l-2.4-1.9c-.2-.1-.5-.3-.7-.4-.8.3-5.1,2-6.7,2.7-10.6,4.8-23,5.6-34.1,2.2-3.3-1-8.1-2.5-8.1-2.5l-1.4,1.9c-.8,1.3-1.5,2.7-2.1,4.2-.2.4-.3.8-.5,1.3-.2,1-.5,2.2-1.1,3.6-.6,2.2-1,4.5-1.1,6.8-.1,2,0,4,.1,6,.2,2,.7,4,1.1,5.9h0c.4,1.5.7,2.7,1.1,3.7-.2-.3-.4-.6-.6-.8h0c.1.5-.5.7-.6.4-.7-1.6-1.4-3.3-2.1-4.9-.2-.6-.5-1.1-.7-1.7-.1,0-.2,0-.3-.3-.2-.6-.3-1.1-.5-1.7-2-4.7-3.9-9.3-6.1-13.9-.2-.2-.4-.5-.7-.7-3.2,3.8-2.9,9.6-.9,14.1,2,4.6,5.4,8.3,8.3,12.3,6.9,9.5,11.9,21.2,22.2,26.8,7.2,3.9,16.4,4.1,23.7.4,9.5-4.8,13.7-15.6,19.7-24.4,8.2-11.8,9.6-28.2,9-28.5h.1v-.2h0Z"/>
          <path class="st0" d="M558.9,979.6c1.8-3.8,3.6-7.6,5.5-11.4,3.8,6.7,12.2,10.2,19.8,8.8-2.6,3.7-6.9,6.1-11.4,6.4-1.8,0-3.7,0-5.5.2s-3.7,1.2-4.5,2.9c1.7-.4,3.5-.2,5.1.6,1.8.9,3.2,2.4,4.8,3.6,4.8,3.6,11.6,4.4,17,1.8-2.2,3.2-4.7,6.3-7.9,8.4-3.2,2.2-7.2,3.4-10.9,2.4-4.5-1.1-7.9-5.2-9.6-9.6-1.6-4.4-1.8-9.3-2.4-14h0Z"/>
          <path class="st0" d="M514.6,982.1c-2.3-3.7-4.7-7.4-7.1-11.1-4,6.9-13.6,10.8-22.6,9.7,3.2,3.6,8.4,5.8,13.6,5.8s4.3-.3,6.4,0c2.1.2,4.4,1,5.4,2.7-2-.3-4.1,0-6,.8-2,.9-3.6,2.5-5.3,3.8-5.4,3.9-13.2,4.9-19.7,2.6,2.7,3.1,5.8,6,9.6,8,3.8,2,8.6,3,12.9,1.9,5.2-1.3,8.9-5.6,10.6-10,1.6-4.5,1.6-9.3,2-14.1h.2Z"/>
          <path class="st0" d="M556.1,982.8c.3,6.2,2,11.9,3.7,17.9s5,13.6,10.8,15.8c15.3,5.5,23.9,8.3,35.2,13.2-14.8,12.1-19,16.2-31.2,28.4-20.4,1.1-40.8,2-61.2,2.1-3.8,0-13-.2-13-.2l-10.3-11.1c-8.6-8.6-9.9-10.9-16.1-18.5,11.8-2.9,21.8-8.2,31.3-14.4,9.2-6,11.9-17.3,11.9-31.9,4.9,4,12.7,6.4,20.1,6.7,6.7.3,13.8-3,18.7-7.9h.1Z"/>
        </g>
      </g>
    </g>
  </g>
</svg>