<?xml version="1.0" encoding="UTF-8"?>
<svg id="Layer_1" xmlns="http://www.w3.org/2000/svg" version="1.1" viewBox="0 0 1080 1920">
  <!-- Generator: Adobe Illustrator 29.2.1, SVG Export Plug-In . SVG Version: 2.1.0 Build 116)  -->
  <defs>
    <style>
      .st0 {
        fill: #93459a;
      }
    </style>
  </defs>
  <g id="Layer_2">
    <g id="violet">
      <g id="main6">
        <g>
          <path class="st0" d="M498.7,1052c25.4.7,50.9,0,76.5-1.6,9.7-9.2,19.8-18.1,30.7-26.5-9.8-3.3-19.6-6.5-29.5-9.8-3.5-1.2-7.1-2.4-9.6-4.8s-3.7-5.7-4.9-8.8c-2.4-6.6-4.8-13.7-4.2-21.2-4.7,5.5-12.1,8.9-19.7,9.2-7.6.3-15.3-2.6-20.4-7.7,0,5.4,0,10.8-1.1,16.1s-3.8,10.5-8.2,14.1c-3.5,2.9-7.9,4.6-12.2,6.3-6.9,2.7-13.9,5.4-21.3,8.6,8.8,8.1,17,16.8,23.9,26.1h0Z"/>
          <path class="st0" d="M527.9,885.9c.9-.6,1.6-1.3,2.2-2.1-3.8.2-7.6.8-11.1,2,.5.4,1.1.8,1.7,1,2.4,1,5.1.5,7.2-.9h0Z"/>
          <path class="st0" d="M507.5,899.3c2.8-1.2,5-3.7,5.2-6.5,0-1.3-.3-2.5-1-3.6-4.1,2.7-7.3,6.3-9.7,10.3.3,0,.6.2.9.3,1.5.4,3.2,0,4.6-.5Z"/>
          <path class="st0" d="M497.4,917.1c2.4-.2,4.7-1.6,5.4-3.6.8-2.1-.4-4-2.4-5.2-.6-.4-1.3-.6-2-.8v.2c-1,3.1-1.6,6.2-2.1,9.3h1.1Z"/>
          <path class="st0" d="M509.3,904.1h0v-.2h0v-.2h0v-.4h0s-.2-.2-.3-.2h-.7v.2h0v.2h0v.4h0v.2c0,0,.1,0,.2.1h.8v-.2h0Z"/>
          <path class="st0" d="M535.7,883.7h-4c-.7,1.5-2.1,2.8-3.5,3.6-1.3.7-2.7,1.2-4.2,1.3s-2.9-.2-4.2-.8c-.8-.4-1.5-.9-2.2-1.5-1.5.6-3,1.2-4.4,2-.2.1-.4.2-.6.4,1.1,1.6,1.6,3.5,1.1,5.5-.8,3.1-3.7,5.8-7.2,6.7-1.7.5-3.5.5-5.2-.2-1,1.9-1.9,3.9-2.6,5.9,1.2.3,2.3.8,3.2,1.5,1,.8,1.7,1.7,2,2.9s0,2.5-.6,3.6c-1.3,2.2-4.1,3.7-6.9,3.5h-.4c-.4,3.4-.6,6.8-.6,10,.3-.1.6-.3.9-.5s.7-.5,1-.8c.6-.6,1.3-1.1,2.1-1.4.9-.4,1.9-.5,2.9-.5s1.5.6,2.3.7h.6c.3,0,.4.2.6.3.2,0,.4,0,.5.1.3,0,.5.2.8.3.9.3,1.8.6,2.8.7h1.7c-.4-.3-.8-.6-1.3-.9s-.9-.6-1.2-1c-.2-.2-.4-.5-.5-.7v-.2s-.2,0-.3-.2c-.3-.2-.6-.5-.8-.8-.3-.5-.6-1-.8-1.5-.2-.3-.4-.7-.5-1v-1.1c0-.6-.4-1.2-.5-1.8-.1-.4,0-.8,0-1.2v-1.1c0-.5,0-1.1.4-1.6,0-.5.2-.9.4-1.4.3-.6.4-1.1.8-1.6.7-.9,1.3-1.9,2.2-2.7.4-.3.8-.6,1.1-.9.3-.3.5-.7.9-1,.7-.7,1.4-1.4,2.3-1.9s2.1-.8,3.1-.3c.9.4,1.5,1.2,2.3,1.7s1.8,1,2.8,1.3c.5.1.9.4,1.4.5s1,.2,1.5.4c.3,0,.5.2.7.3h.5c.3,0,.7,0,1.1.2-.4-.4-.7-.7-1-1.1-.7-.8-1.3-1.5-1.6-2.5-.3-.8-.4-1.7-.4-2.6s.2-1,.3-1.5c0-.4.2-.8.3-1.2.2-.8.5-1.6,1.1-2.3.5-.7,1-1.5,1.7-2.1s1.8-1,2.7-1.4c.5-.2.8-.5,1.2-.6.4-.2.7-.3,1-.5.8-.5,1.8-.7,2.7-1h.2v-7.8h0l.3-.2h0ZM510.7,904.3c-.2.7-1,1.2-1.8,1.2-1.5,0-2.9-1.7-2-2.9,0-.2.3-.2.5-.2v-.2c0-.2.2-.3.5-.4h1.2c.4.1.8.4,1.1.6.5.5.8,1.3.7,2h-.2ZM523.2,895.4c-.3.1-.5.2-.8.3h-.9c-.7,0-1.3-.3-1.8-.7-.8-.6-1.5-1.8-1.1-2.7h0v-.7h0s0-.1.1-.2.1,0,.2-.1h.3c.9-.9,2.4-1,3.5-.6.5.2,1,.5,1.4.9s.5.9.5,1.5c0,1-.7,2-1.7,2.5h0l.3-.2Z"/>
          <path class="st0" d="M523.6,892.5h0v-.2h0v-.2q0,0,0,0c0,.1-.1-.2-.2-.2h0c0-.1-.2-.2-.2-.2-.2,0-.3-.1-.5-.2-.7-.2-1.5,0-2.1.4h-.1c0,.1,0,.3-.2.3h0s0,.1.1.2v.5h-.1v.5h0c0,.1.1.2.2.3h.1c0,.1.2.3.3.3h.1v.2h.7s.2,0,0,0h.3c-.2,0,0,0,0,0h.3s0,0,0,0c0,0,.2,0,.3-.2h0s.2-.1.3-.2h0v-.2s.1-.2.2-.2v-.2c.1,0,.2-.2.2-.3h0v-.6h0v-.2h.1l.2.4h0Z"/>
          <path class="st0" d="M559.1,894.5c1,1.4,2.9,2.2,4.8,2.2s1.9-.2,2.7-.5c.5-.2.9-.4,1.3-.7.2-.1.3-.2.5-.4-1.8-2.5-4.1-4.7-6.9-6.4-.5-.3-1-.5-1.5-.8-.6.5-1.2,1.1-1.5,1.8-.7,1.5-.5,3.4.5,4.8h.1Z"/>
          <path class="st0" d="M572,917.3c.3,1.3,1.5,2.3,3,2.7.7.2,1.4.2,2.1,0h.4c-.3-2.5-.8-5-1.5-7.5-1,0-2,.4-2.8,1.1-1,.9-1.5,2.4-1.3,3.7h0Z"/>
          <path class="st0" d="M541.7,884.3c.6,1.1,1.8,1.8,3.3,1.7,1.2,0,2.3-.6,3.1-1.3-1.2-.2-2.5-.3-3.7-.4-.9,0-1.8-.2-2.8-.2,0,0,0,.2.2.3h-.1Z"/>
          <path class="st0" d="M551.8,891.9v-.2h0v-.2h0s0-.1-.2-.2h-1.1l-.2.2v.2h-.1v.4h0v.2h0s.1.1.2.2h0s.2.1.2.2h.5s0-.1.1-.2h0v-.2h0v-.3h0c0-.1.6-.1.6-.1h0Z"/>
          <path class="st0" d="M569.4,904.7h0c0-.1-.7-.1-.7-.1,0,0-.2.1-.2.2h0s-.2.2-.3.2v.2h0v.2h0c0,0,0,.1.1.2h1v-.2h0v-.2h0v-.2h0v-.3h.1Z"/>
          <path class="st0" d="M577.6,921.3c-1.2.3-2.6.1-3.7-.3-1.9-.7-3.2-2.3-3.4-4.1-.1-1.8.8-3.6,2.4-4.7.8-.5,1.8-.8,2.8-.9-.7-2.5-1.5-5-2.5-7.5-1.1-2.6-2.4-5.3-4-7.6-.6.6-1.5,1-2.3,1.3-1.2.5-2.5.6-3.9.5-2.3-.2-4.5-1.5-5.5-3.5-1-1.9-.9-4.1.2-5.9.3-.5.6-.9,1.1-1.3-2.9-1.2-6.1-2-9.3-2.5-.2.2-.4.4-.6.6-1.2,1.1-3,1.6-4.7,1.4-1.8-.2-3.2-1.5-3.7-3-1.2,0-2.4-.2-3.5-.2v7.4c.3.1.6.2,1,.3.4,0,.8,0,1.2.3.3.2.6.4.9.6.5,0,.9.2,1.4.4.8.1,1.3.5,2,.8.3.2.6.3.9.5.4.2.5.5.9.8.6.5,1.2.9,1.8,1.5.6.6.9,1.5,1.1,2.2.3.8.4,1.6.4,2.4v1.2c0,.4-.1.8-.2,1.2-.1.8-.2,1.7-.7,2.5-.4.6-1,1.1-1.6,1.5-.3.3-.6.5-1,.7h.8c.5,0,1.1-.2,1.6-.3h1.1c.8-.4,1.6-.9,2.5-1.2.5-.2,1-.5,1.6-.6.5-.1.9-.3,1.3-.6.5-.3.8-.6,1.1-1,.4-.4.8-.7,1.3-.9.2,0,.4-.1.5-.2.2,0,.2-.1.4-.2.5-.2.9-.2,1.3,0,1,.2,1.5.9,2.1,1.6.3.3.6.5,1,.7s.8.6,1.2.9c1.4,1.3,2.4,3.1,3.1,4.8.5.6.6,1.4.9,2.1.2.5.4.9.4,1.4v5.2c0,.4-.3.8-.6,1.1-.4,1.1-1,2.1-2.3,2.6-.5.2-1.1.4-1.6.7-.5.3-1,.5-1.6.5-.4.1-.8.2-1.2.3-.2,0-.5,0-.7.2s-.4.2-.7.2h-.5c-.2,0-.5.2-.6.2-.2,0-.3,0-.5.2.4.2.7.4,1.1.4h1.3c.5,0,1,.2,1.5.3.8.3,1.7-.1,2.5-.1h1.5c.5,0,1,0,1.5-.1.4,0,.8-.3,1.2-.5.5-.2.9-.2,1.4-.3,1-.1,2.1,0,3.2,0h4.7c.4,0,.7.3,1,.5h0c0-1.5-.2-3-.4-4.5h.1ZM552.3,893.4c-.3.3-.7.5-1.1.6-.5,0-.9,0-1.4-.2-.7-.3-1.4-1.1-1.3-1.9v-.2c0-.5.3-.9.8-1.2.4-.2.9-.4,1.4-.5s.9,0,1.4.2c.4.2.7.5.8.9.3.8.1,1.6-.5,2.3h0ZM568,906.4c-.7-.3-1.3-.8-1.3-1.6s0-.2.2-.3v-.2c0-.2,0-.5.2-.7s.4-.3.6-.5c.4-.2.8-.3,1.2-.2.4,0,.8.1,1.1.3.4.2.6.5.7.9.2.6,0,1.4-.5,1.9s-1.4.6-2.1.3h-.1Z"/>
          <path class="st0" d="M580.3,932.4c0-.8,0-1.7-.4-2.5-.2-.6-.7-1.1-1.3-1.4-.2,0-.4,0-.6.2v-.9c-.3,0-.7,0-1-.1-.2,0-.6-.3-.7-.5t0,0h-5.7c-.6,0-1.3,0-1.9.1-.5.2-1,.5-1.6.6s-1.3.1-1.9.2-1.3,0-2,0c-.6.2-1.3.2-2,.2s-1.2-.4-1.8-.4-1.7,0-2.5-.4c-.7-.3-1.4-.5-2-1-1-.5-.7-1.7.3-2.2.4-.2.8-.3,1.2-.4.3,0,.6-.2.9-.3.4-.2.9-.3,1.4-.3.6-.3,1.5-.3,2.1-.5.4-.1.8-.1,1.1-.3.3-.2.5-.3.8-.5.7-.3,1.5-.4,1.8-1,.2-.2.2-.5.3-.8s.3-.5.5-.8v-4.5c0-.4,0-.7-.2-1.1-.2-.4-.4-.7-.5-1.1,0-.2,0-.3-.1-.5,0-.2-.2-.3-.3-.4-.2-.4-.3-.8-.5-1.1-.6-1.2-1.5-2.6-2.7-3.6s-1.4-.7-1.9-1.4c-.2-.3-.4-.6-.7-.8-.2-.1,0,0-.3,0h0c-.2,0-.4.1-.5.2-.3.1-.5.3-.7.5-.3.3-.5.6-.8.8-.4.3-.8.6-1.3.8-.4.2-.8.4-1.2.5-.5.1-.8.3-1.2.4-.8.3-1.5.6-2.2,1-.4.2-.7.4-1.2.5h-1c-.8,0-1.6.4-2.5.3-.5,0-.8-.1-1.3-.1h-1.4c-.3,0-.5-.2-.9-.2h-1c-.8,0-1.4-.8-.9-1.4.3-.4.7-.7,1.3-.8h1.1c.4-.2.8-.3,1.2-.5.4-.2.8-.3,1.1-.6.6-.6,1.4-.9,1.6-1.9s.4-2,.4-3,0-1.8-.4-2.7c-.1-.4-.3-.9-.5-1.2-.3-.3-.6-.6-.9-.9-.5-.3-.9-.6-1.3-1-.2-.2-.6-.3-.9-.4-.4-.2-.7-.4-1-.5-.2,0-.4,0-.6-.1-.3,0-.5-.2-.7-.3-.3,0-.5,0-.8-.2-.2,0-.4-.2-.6-.4-.3-.3-.4-.5-.8-.5s-.9-.2-1.3-.4h0c0,.3-.3.5-.7.6-.5.2-1,.2-1.5.4-.4.2-.7.4-1.2.6-.2,0-.5.2-.7.3s-.4.3-.6.4c-.5.2-1,.4-1.5.6-.4.2-1,.4-1.4.7-.3.3-.6.7-.8,1-.5.8-1.1,1.4-1.3,2.3-.1.4-.2.9-.3,1.3,0,.5-.3,1-.3,1.5,0,.9.2,1.8.7,2.6s1.2,1.6,1.9,2.2c.3.3.7.5,1.1.7,0,0,.2,0,.3.1.4,0,.7,0,.9.2h0c1.4,0,1.4,1.9,0,1.9s-1,0-1.4-.2c-1,.2-2,.3-3,.2-.5,0-1,0-1.5-.1-.6,0-1.1-.4-1.7-.6-.5-.2-1.1-.2-1.6-.4s-.9-.3-1.4-.5c-1.1-.4-2.2-.9-3.1-1.5-.5-.3-.8-.7-1.3-1-.4-.2-.5-.5-.8-.4-1.1.2-1.8,1.2-2.5,1.8-.4.3-.6.7-.9,1.1-.4.3-.7.6-1.1,1s-.7.7-1,1.2-.7.9-1.1,1.4c-.3.4-.4,1-.6,1.5,0,.2-.1.4-.2.6s-.1.4-.2.6v.7c0,.2-.1.4-.2.6v1.4c.4.9.5,1.8.6,2.8,0,.5.4,1,.6,1.3s.4.7.6.9c.3.1.5.3.6.4.3.2.5.5.5.9.4.5.9.8,1.5,1.1.5.3.9.7,1.5,1,.6,0,1.2.2,1.7.3.2,0,.6.2.8.2h.6c.8-.3,1.9.1,1.6,1-.2.5-.5.7-1,.8-.3.2-.6.2-1,.3-.7,0-1.3.2-2,.3-1.2.2-2.4.2-3.6,0-1.2,0-2.5-.2-3.6-.6-.5-.2-1-.4-1.5-.5-.4,0-.8-.2-1.1-.4-.5,0-.9-.2-1.4-.3-.3-.1-.7-.2-1-.4-1.2,0-2.4.3-3.2,1.1s-1.9,1.7-3.2,2.1h-.4v.7c-1,0-2-.2-3-.3-.5,6.3,1.6,12.4,3.8,18.3.5,1.4,1,2.9,2,4.1s2.5,2.1,4.7,2.2c3.5,7,7.2,14,12.7,19.8s13.4,10.2,21.9,10.2,17.1-4.9,22.5-11.2,8.7-14,11.7-21.6c0,.4,0,.8-.2,1.9,3.9-1.9,6.4-5.6,7.6-9.5s1.1-8,1.1-12h0Z"/>
          <path class="st0" d="M556.8,878.5v-.3h0v-.4h0s0-.2-.1-.3v-.2h0l-.2-.2h0v-.2s-.2-.1-.3-.2h-1.5c0,.1-.2.1-.3.3h0v.2h-.1v.4h0c0,.1,0,.2-.1.3v.2h0v.5h0v.3h0c0,.2,0,.3.2.4.2,0,0,0,0,0h.1c0,.1.2.1.2.3,0,0,.2,0,0,0h1.4s.2,0,0,0h0s.2,0,.3-.1h0s.2-.1.2-.2h0s0-.2.2-.2h0v-.2h0v-.3h0Z"/>
          <path class="st0" d="M570.8,879.1v.2h0c0,.2.1.3.2.5h0s0,.1.1.2l.2.2h0c.1.2.2.2.4.3h.2c0-1.1-.3-2.4-.7-3.5-.2.2-.4.5-.5.7-.2.5-.3.9-.2,1.4h.3Z"/>
          <path class="st0" d="M562.7,886.7c-1.9.3-3.5,1.4-4.1,3h0l4.5,1.5c2-.5,3.8-1.6,5.3-2.9-1.4-1.4-3.6-1.9-5.7-1.6h0Z"/>
          <path class="st0" d="M548.5,881.2c-.3-.5-.6-1-1.1-1.4s-1-.6-1.5-.8c-.3,2.2,0,4.5,1.2,6.3.5-.3.9-.6,1.2-1,.8-.9.8-2.1.3-3.1h-.1Z"/>
          <path class="st0" d="M565.2,871.7v-.2h0v-.2h-.7s-.2.2-.3.2,0,0,0,0h0v.2h0v.2h0s0,.1.2.2h.2v-.3h0v-.2h.6,0Z"/>
          <path class="st0" d="M569.4,879.2c-.2-1.2.5-2.5,1.6-3.2-.3-.6-.6-1.2-1-1.7-1.4-2-3.2-3.8-5.6-4.8-4.7-2-11.3-.7-15.2,3.1-1.6,1.5-2.7,3.5-3.2,5.4h0c2,0,3.5,1.9,3.9,3.4.2.7.3,1.5,0,2.2-.2.7-.6,1.4-1.2,1.9-.3.2-.5.4-.9.6l9.3,3.2c0-.2.2-.5.4-.7,2.2-3.8,8.4-4.1,11.6-1.1,1.5-1.6,2.5-3.6,2.8-5.6-1.4-.4-2.5-1.5-2.7-2.8h.2ZM558.1,878.9c-.2.5-.5.9-1,1.2-.9.6-2.2.8-3.3.5-1.2-.4-1.8-1.4-1.8-2.5s.6-2,1.7-2.3h.6c.4-.3.8-.4,1.3-.3.4,0,.7.2,1.1.4.6.3,1.1.9,1.3,1.5.2.5.3,1.1,0,1.7h0v-.2h0ZM565.9,872.9s-.1.2-.2.2c0,0-.1,0-.2.1h-1.4c-.3,0-.6-.3-.8-.6-.1-.2-.2-.3-.3-.5v-.6h0c.2-.7.8-1.2,1.5-1.3.4,0,.8,0,1.1.1.3.2.5.5.6.7.3.5.3,1.3-.2,1.7h0v.2h-.1Z"/>
          <path class="st0" d="M583.8,893l-.2.2s-.2.2-.3.2h0c-.7.9-.9,2.1-.6,3.2.6,1.9,2.7,3.6,5.1,3.2,1.9-.3,3.3-1.5,3.9-3.1-2-1.9-4.8-3.2-7.9-3.7h0Z"/>
          <path class="st0" d="M577.7,912.9c-1-.4-2-.4-2.9-.1l1,2c1.5.7,3.1,1.1,4.8,1.2-.3-1.3-1.4-2.5-2.8-3.1h-.1Z"/>
          <path class="st0" d="M594,900.1c-.3-.8-.8-1.5-1.3-2.2-.3.5-.7,1.1-1.2,1.5-1.1,1-2.6,1.7-4.2,1.7s-2.9-.5-4-1.4c-2-1.7-2.7-4.7-1-6.7h.1c-.5-.1-1.1-.1-1.6-.1-5.7.2-10.8,3.9-11.8,8.3l1.4,2.9h0l3.7,7.5c1.6-.5,3.3-.3,4.8.5s2.5,2.3,2.8,3.9c3.2,0,6.3-.9,8.5-2.7,2.1-1.7,3.4-3.9,4-6.3.6-2.3.7-4.7-.2-6.9h0ZM575.6,900.6c-.4-.2-.7-.4-.9-.7-.4-.6-.4-1.5,0-2h0c.2-.4.7-.7,1.2-.8.5,0,1,0,1.4.3.4.2.6.4.9.7s.3.8.2,1.2c-.2.8-1,1.5-1.8,1.6h-1.2l.2-.3h0ZM581.1,908.3c-.3.4-.6.7-1.1.9-.8.5-1.9.5-2.8,0-.8-.5-1.3-1.3-1.1-2.2.2-.9.8-1.6,1.8-1.9h.1c.6-.3,1.4,0,1.9.2.5.4.9.8,1.1,1.4.2.5.1,1.1-.2,1.5h.3ZM589.7,907c-.2.6-.8.9-1.5.9s-1.2-.4-1.5-.8c-.3-.5-.4-1.1,0-1.6,0-.1.2-.2.4-.2v-.2c.2-.4.9-.4,1.3-.3.3.1.6.3.8.5.2.2.4.5.4.8v.8h.1Z"/>
          <path class="st0" d="M576.6,899.8h.4c0-.2,0-.3.2-.4,0,0,0-.1,0,0h0v-.2h0v-.2h0v-.2h0c0,0,0,0-.1-.1h-1.1s-.1,0,0,0h0s-.2.1-.3.2h0s0,.1-.1.2h0v.2s0,.2,0,0h0v.2h0v.2h0v.3h0c0,.1,0,.2.2.2h.7v-.4h0Z"/>
          <path class="st0" d="M588.8,906.7h0v-.2h0v-.2h0c0-.1,0-.2-.2-.3h-.9v.2h0v.2h0v.2h0v.2h0c0,.1.6.1.6.1h0v-.3h.5Z"/>
          <path class="st0" d="M580.1,907.4h0v-.2h0s0-.2-.1-.2h0c0-.1-.1-.2-.2-.3h-.1c0-.1-.2-.1-.2-.3h-.5s-.2.1-.3.1h-.1s-.1.2-.2.2h0v.2h0v.2h0v.2h0v.3h0v.3h0s.1,0,.2.2h.6s-.1,0,0,0h.6s.2,0,.3-.1h.1s.1,0,.2-.2h0s0-.1.2-.2h0v-.2h0c0-.1-.5,0-.5,0Z"/>
          <path class="st0" d="M519,871.1c-1.3,1.1-2.3,2.4-3,3.9-1,2.2-1.1,4.6-.2,6.9.9,2.1,2.5,4,4.8,5,.3.1.5.2.8.3l3.3-1.6c2-4.2.7-9.7-2.9-12.7-.9-.7-1.8-1.3-2.9-1.7h.1Z"/>
          <path class="st0" d="M505.3,873.8c.3.2.5.2.9.2.6,0,1.4-.3,1.7-.8,0,0,0-.2.2-.2h0v-.3h0v-.2h0v-.4h0s0-.2-.1-.2h0c0-.1-.2-.3-.2-.3h-.1s-.2,0-.2-.1h-1.5c-.5.3-1.1.6-1.5,1,0,.4.2.7.4,1,.2.3.4.5.7.7h-.1l-.2-.4h0Z"/>
          <path class="st0" d="M519.7,887.7c-2.6-1.2-4.4-3.6-5.3-6-1.5-4.2.3-8.2,3.5-11.1-1.1-.4-2.3-.6-3.4-.8-2.2-.3-4.5-.2-6.5.4.5.2,1,.6,1.3,1.1.6.9.4,2.1-.4,2.9-.7.7-1.8,1-2.8,1s-1-.2-1.5-.5-.8-.7-1-1.2c0-.2-.2-.3-.2-.5-2.6,2.5-4.1,6.3-3.6,10,.1.8.4,1.6.6,2.3,3.1-1.2,7-.6,9.7,1.1,1.8,1.1,3.1,2.7,3.6,4.6l6.2-3h-.2v-.2h0Z"/>
          <path class="st0" d="M500.7,886c1.7,3.6,5.4,6.2,9.4,6.6l2.5-1.2c-.9-4.4-7.3-7.1-11.9-5.3h0Z"/>
          <path class="st0" d="M499.1,897.8c1,1,2.3,1.7,3.7,2,.3,0,.5,0,.8.1-1.3-2.8-3.9-5.2-7-6.4v.3c.4,1.5,1.2,2.8,2.4,3.9h.1Z"/>
          <path class="st0" d="M500.6,908.4h-.1c-2-1.2-4.4-1.4-6.5-.5h-.2s0,.1-.1.2c-1.9,1.5-2.4,4.1-1.5,6.1.3.7.8,1.3,1.5,1.8,1.5-.2,2.8-.6,4.1-1.3l2.9-6.3h0Z"/>
          <path class="st0" d="M501.3,900.7c-1.6-.6-3-1.6-4.1-2.9-1.1-1.3-1.9-3-2.1-4.7-.8-.2-1.6-.4-2.4-.4-2.8-.2-5.5.6-7.9,1.8-2.3,1.2-4.3,2.8-5.5,4.9-2.3,4.2-.9,10,3.2,13.5,2.7,2.2,6.3,3.3,9.7,3.2-.6-.7-1.1-1.5-1.4-2.3-.6-2.2,0-4.7,2-6.3h.2s0-.2.2-.3c2.2-1.4,5.4-.9,7.6.4l2.9-6.3c-.9,0-1.7-.2-2.5-.5h0ZM488.7,904.6c-.2.4-.5.8-1,1-.8.5-1.9.6-2.8.1-.9-.4-1.2-1.4-1-2.2,0-.4.2-.8.5-1.2.2-.2.4-.4.6-.5.3-.1.5-.2.8-.2h0c1.2-.2,2.3.5,2.7,1.5s.3,1,0,1.5h.2,0Z"/>
          <path class="st0" d="M487.7,903.7v-.2h0v-.2h0v-.2h0s-.1-.1-.2-.2,0,0-.1,0h0s-.2-.1-.2-.2h-.4s-.1,0,0,0h0s-.1,0-.2.1h0s-.1.1-.2.2h0s0,.1-.1.2h0v.3h0v.4h0v.3h0v.2h0c0,.1.2.1.2.1h.9s.2,0,.3-.1h0s.1,0,.2-.2.1,0,0,0h0v-.2h0v-.2s0-.2,0,0h0v-.2h-.2,0Z"/>
          <path class="st0" d="M574.9,969.3h0v-.2h0c0-.1-.2-.3-.3-.3h-1.2s0,.1-.1.2h0c0,.1,0,.2,0,.1h0v.2h0v.3h0v.2h.1c0,.1.3.1.3.1h.4s.1,0,.2-.2h0v-.2h.1v-.2h0v-.2h0l.5.2Z"/>
          <path class="st0" d="M567.2,974.7c.3-.5.3-1.1.2-1.7-.2-1.1-1.2-2-2.4-2.2-.1,0-.2,0-.3-.2-.6,1-1.3,2-2,3,1.2.8,2.7,1.3,4.2,1.6.1-.2.2-.3.3-.5h0Z"/>
          <path class="st0" d="M579.5,963.9c-.4,0-.8-.1-1.2-.3-1.7-.6-2.9-2.1-2.8-3.8,0-.8.4-1.5.8-2.1-.6-.6-1.3-1.2-2-1.7-3.1,4.8-6.2,9.3-9.2,13.8h.1c1.6.3,2.9,1.5,3.3,2.9.2.8,0,1.6-.3,2.3v.2c2,0,4.1-.3,5.8-1.2,3.5-1.8,5.6-5.3,5.6-8.9s0-.9,0-1.3h0ZM571.2,964.2v-.5s0-.2.2-.3c.2-.2.3-.3.6-.5.3-.2.7-.3,1.2-.3s.7,0,1.1.2.6.5.7.8c.2.6,0,1.3-.4,1.7-.5.5-1.3.6-1.9.4s-1.2-.7-1.2-1.4c0,0-.1-.2-.2-.3h0v.2h-.1ZM576.1,969.9c-.4.8-1.3,1.4-2.2,1.4s-1.6-.7-1.8-1.4c-.2-.5,0-1.2.3-1.6v-.3c.2-.2.4-.4.7-.5.3,0,.5-.2.8-.2.5,0,1,.2,1.4.4.4.3.7.6.8,1,.1.4.1.8,0,1.2h0Z"/>
          <path class="st0" d="M572.3,964.5h0v.2h0v.2h.9v-.2h0v-.2h0v-.2h0v-.2h0v-.2h0c0-.1-.3-.1-.3-.1h-.5s-.1.2-.2.2v-.2c0,.1-.1.2-.2.3h0l.3.4h0Z"/>
          <path class="st0" d="M578.5,962.5c.3.1.5.2.8.3-.4-1.5-1.2-2.9-2.2-4.2-.4.7-.5,1.5-.3,2.2.3.8.8,1.3,1.6,1.7h.1Z"/>
          <path class="st0" d="M498.1,965.1h1.2s.2,0,.3-.2h0s.2-.1.3-.2,0,0,0,0h0v-.3s0-.2,0,0v-.3h0v-.4h0v-.3h0s-.1-.2-.2-.2l-.2-.2h-.4c-.5.9-.9,1.9-1.2,2.9h.2v-.8h0Z"/>
          <path class="st0" d="M505.5,970.8v-.2h0c0-.1,0-.2-.1-.3h0c0-.1-.2-.3-.3-.3,0,0-.2-.1,0,0h-.1s-.2-.1-.3-.2h-.9c.2,0,0,0,0,0h-.4c0,.1-.2.2-.3.2h0v.2s-.1.2-.2.3h0v.5h0v.5h0v.5h0v.2s0,.2.1.2h0v.2h0c0,.1.2.1.3.2h1.3s.2,0,.3-.1h.2s.2-.1.2-.2h0v-.2s0-.2.2-.2h0v-.2h0v-.4h0v-.2h0v-.5h0Z"/>
          <path class="st0" d="M509.1,978.7h0v.2s0,.2.1.2h0c.3,0,.6,0,.9.1h.7s.1,0,.2-.1h0c0-.1,0-.2.1-.2h0v-.2h0v-.2h0v-.3h0c0-.2,0-.3-.1-.4h0s-.1-.2-.2-.2h-1.4v.2h0v.2h0v.5h0v.2h-.3Z"/>
          <path class="st0" d="M513.4,973.9c-3.8-5.1-7.6-10.1-11.5-15.2-.8.7-1.5,1.5-2.1,2.2.6.2,1.1.7,1.5,1.1.4.5.6,1.1.6,1.8s-.4,1.1-.8,1.5c-.8.8-2.2,1.2-3.3.8-.2,1.9,0,3.7.9,5.4,1.6,3.5,5.2,6.3,9.3,7.3v-1c.2-.9,1-1.7,2.1-1.8h0c.2,0,.3,0,.5-.1h.5c.3,0,.5.2.7.3.5.4.9.9,1.1,1.4.1.4.2.8,0,1.2.6-.2,1.2-.6,1.5-1.2.7-1.3-.2-2.7-1.1-3.9h0v.2h0ZM506.6,971.4h0v.4c-.2.5-.5.9-.9,1.2-.9.6-2.2.8-3.2.3-2.1-.9-1.8-4,.3-4.8h.4c.6-.4,1.6-.1,2.2.2.6.4,1.1.9,1.4,1.5,0,.2.1.5.1.8v.4h-.3Z"/>
          <path class="st0" d="M490.8,925.7c-1.5.6-3,1.2-4.4,1.9.2.2.3.4.4.5.2.4.3.8.2,1.2,0,.7-.5,1.4-1.1,1.9-.7.5-1.6.6-2.5.3-.6-.2-1-.7-1.3-1.3-.9.8-1.7,1.6-2.3,2.5-1.3,2-1.8,4.4-1.4,6.7.9-1.2,2.3-1.9,3.9-2h0c1.2-.2,2.4.4,3.3,1.1s1.5,1.7,1.8,2.7c.5,1.9-.4,3.8-2.3,4.7-.5.2-1.1.4-1.7.5,2.9,1.7,6.7,2.2,10.1,1.2-3.7-6.8-4.7-14.7-2.8-22h0Z"/>
          <path class="st0" d="M486,941c-.3-.6-.7-1.2-1.4-1.6-.7-.5-1.4-.6-2.2-.8h0c-1.6,0-2.9,1.2-3.5,2.6.4,1.2,1.1,2.3,2,3.2.3.3.6.6,1,.9,1.1.2,2.3,0,3.2-.7,1.3-.9,1.5-2.4.9-3.6Z"/>
          <path class="st0" d="M483.1,929.7h0c0,.2.1.3.2.5h0v.2c.1,0,.3.2.1,0h.2s.2,0,.1,0h.9s.2-.2.3-.2h0v-.2h0v-.4h0v-.4h0v-.2h0v-.2h-.1c0-.1-.2-.3-.2-.3-.7.4-1.4.8-2,1.3h.5Z"/>
          <path class="st0" d="M587.6,941.7h0v-.3h0s-.1-.1,0,0c0,0-.1,0-.2-.1h0s-.1,0-.2-.1h-1c-.1,0,0,0-.2.1h0v.2c0,0,0,0-.1.1q0,.1,0,0h0v.2h-.1v.3h0c0,.1,0,.2.1.3h0c0,.1.1.2.2.3h.5s.1,0,0,0h.6v-.2h0v-.4h0v-.4h.4Z"/>
          <path class="st0" d="M583.8,930.4h.3s.2,0,.3-.2c.4-.2.7-.6,1-.9.4-.5.5-1,.6-1.6-1.1-.6-2.2-1.2-3.4-1.8.3,1.6.5,3.2.7,4.8.2,0,.4,0,.5-.1h0v-.2h0Z"/>
          <path class="st0" d="M592.7,937c-1,0-1.9-.2-2.8-.6-1.2-.6-2-1.7-2.2-2.9-.2-1.4.2-2.8,1.2-3.9-.6-.5-1.3-1.1-2-1.5,0,.5-.3,1.1-.6,1.5-.3.5-.8,1-1.4,1.3-.4.2-1.1.5-1.6.5.3,5.6-.8,11.2-3,16.2,3.6,1.3,7.9,0,10.4-3.2,1.5-2.1,2.3-4.8,2-7.5h0ZM588.2,943.3c-.3.4-.7.7-1.2.8-.5,0-1,0-1.5-.2-.9-.4-1.6-1.3-1.6-2.2s0-.2,0-.2c0-.5.3-.9.7-1.2.4-.3.9-.5,1.5-.5s1,0,1.4.3c.4.2.7.5.9.9.4.8.2,1.7-.3,2.4h.1Z"/>
          <path class="st0" d="M589.8,934.8c.3.3.7.6,1.2.7.5.2,1,.3,1.5.3-.2-1-.5-2-1-2.9s-1.1-1.7-1.7-2.4c0,.2-.2.3-.3.5-.4.8-.5,1.8-.3,2.7,0,.4.3.8.6,1.1h0Z"/>
        </g>
      </g>
    </g>
  </g>
</svg>